<?xml version="1.0" encoding="utf-8" standalone="no"?>
<!DOCTYPE svg PUBLIC "-//W3C//DTD SVG 1.1//EN"
  "http://www.w3.org/Graphics/SVG/1.1/DTD/svg11.dtd">
<svg xmlns:xlink="http://www.w3.org/1999/xlink" width="360pt" height="288pt" viewBox="0 0 360 288" xmlns="http://www.w3.org/2000/svg" version="1.1">
 <metadata>
  <rdf:RDF xmlns:dc="http://purl.org/dc/elements/1.1/" xmlns:cc="http://creativecommons.org/ns#" xmlns:rdf="http://www.w3.org/1999/02/22-rdf-syntax-ns#">
   <cc:Work>
    <dc:type rdf:resource="http://purl.org/dc/dcmitype/StillImage"/>
    <dc:date>2024-04-29T16:52:45.105862</dc:date>
    <dc:format>image/svg+xml</dc:format>
    <dc:creator>
     <cc:Agent>
      <dc:title>Matplotlib v3.8.0, https://matplotlib.org/</dc:title>
     </cc:Agent>
    </dc:creator>
   </cc:Work>
  </rdf:RDF>
 </metadata>
 <defs>
  <style type="text/css">*{stroke-linejoin: round; stroke-linecap: butt}</style>
 </defs>
 <g id="figure_1">
  <g id="patch_1">
   <path d="M 0 288 
L 360 288 
L 360 0 
L 0 0 
z
" style="fill: #ffffff"/>
  </g>
  <g id="axes_1">
   <g id="patch_2">
    <path d="M 45 252 
L 324 252 
L 324 34.56 
L 45 34.56 
z
" style="fill: #ffffff"/>
   </g>
   <g id="PolyCollection_1">
    <defs>
     <path id="m7b92fa6645" d="M 57.681818 -48.26388 
L 57.681818 -48.26388 
L 73.534091 -46.121832 
L 89.386364 -45.891005 
L 105.238636 -45.938681 
L 121.090909 -45.883636 
L 136.943182 -46.338936 
L 152.795455 -47.017163 
L 168.647727 -48.015694 
L 184.5 -49.23651 
L 200.352273 -50.621098 
L 216.204545 -52.365907 
L 232.056818 -54.570662 
L 247.909091 -58.333093 
L 263.761364 -63.786078 
L 279.613636 -72.239073 
L 295.465909 -89.953468 
L 311.318182 -233.945226 
L 311.318182 -243.556364 
L 311.318182 -243.556364 
L 295.465909 -171.792893 
L 279.613636 -127.363741 
L 263.761364 -106.562385 
L 247.909091 -94.666451 
L 232.056818 -87.296074 
L 216.204545 -81.037085 
L 200.352273 -76.144352 
L 184.5 -72.208371 
L 168.647727 -68.213976 
L 152.795455 -65.279149 
L 136.943182 -62.550806 
L 121.090909 -59.985849 
L 105.238636 -57.454896 
L 89.386364 -54.780829 
L 73.534091 -52.21457 
L 57.681818 -48.26388 
z
" style="stroke: #4b0082; stroke-opacity: 0.2"/>
    </defs>
    <g clip-path="url(#p6754be11d5)">
     <use xlink:href="#m7b92fa6645" x="0" y="288" style="fill: #4b0082; fill-opacity: 0.2; stroke: #4b0082; stroke-opacity: 0.2"/>
    </g>
   </g>
   <g id="PolyCollection_2">
    <defs>
     <path id="me9dd1c71ae" d="M 57.681818 -48.26388 
L 57.681818 -48.26388 
L 73.534091 -46.504667 
L 89.386364 -46.045949 
L 105.238636 -46.020899 
L 121.090909 -46.05012 
L 136.943182 -46.325986 
L 152.795455 -46.736763 
L 168.647727 -47.448924 
L 184.5 -48.289821 
L 200.352273 -49.332147 
L 216.204545 -50.940492 
L 232.056818 -53.609242 
L 247.909091 -56.900805 
L 263.761364 -62.402099 
L 279.613636 -74.085474 
L 295.465909 -155.162662 
L 311.318182 -197.880865 
L 311.318182 -226.906702 
L 311.318182 -226.906702 
L 295.465909 -195.40033 
L 279.613636 -127.519139 
L 263.761364 -99.95673 
L 247.909091 -87.231123 
L 232.056818 -79.28452 
L 216.204545 -73.910958 
L 200.352273 -69.689505 
L 184.5 -66.693114 
L 168.647727 -64.022084 
L 152.795455 -61.046723 
L 136.943182 -58.964032 
L 121.090909 -56.939585 
L 105.238636 -54.896769 
L 89.386364 -53.308912 
L 73.534091 -51.252267 
L 57.681818 -48.26388 
z
" style="stroke: #1f77b4; stroke-opacity: 0.2"/>
    </defs>
    <g clip-path="url(#p6754be11d5)">
     <use xlink:href="#me9dd1c71ae" x="0" y="288" style="fill: #1f77b4; fill-opacity: 0.2; stroke: #1f77b4; stroke-opacity: 0.2"/>
    </g>
   </g>
   <g id="PolyCollection_3">
    <defs>
     <path id="mf028645031" d="M 57.681818 -48.26388 
L 57.681818 -48.26388 
L 73.534091 -46.758564 
L 89.386364 -46.256646 
L 105.238636 -46.010823 
L 121.090909 -45.922424 
L 136.943182 -45.986675 
L 152.795455 -46.290047 
L 168.647727 -46.48708 
L 184.5 -46.977916 
L 200.352273 -48.073408 
L 216.204545 -49.76644 
L 232.056818 -53.554759 
L 247.909091 -66.406648 
L 263.761364 -106.750144 
L 279.613636 -138.881433 
L 295.465909 -161.247127 
L 311.318182 -170.22427 
L 311.318182 -192.841182 
L 311.318182 -192.841182 
L 295.465909 -186.945315 
L 279.613636 -172.418216 
L 263.761364 -143.512215 
L 247.909091 -102.150732 
L 232.056818 -82.429499 
L 216.204545 -72.995414 
L 200.352273 -66.733931 
L 184.5 -63.299037 
L 168.647727 -60.558901 
L 152.795455 -58.280025 
L 136.943182 -56.651837 
L 121.090909 -55.012804 
L 105.238636 -53.747909 
L 89.386364 -52.36071 
L 73.534091 -50.629617 
L 57.681818 -48.26388 
z
" style="stroke: #ffa500; stroke-opacity: 0.2"/>
    </defs>
    <g clip-path="url(#p6754be11d5)">
     <use xlink:href="#mf028645031" x="0" y="288" style="fill: #ffa500; fill-opacity: 0.2; stroke: #ffa500; stroke-opacity: 0.2"/>
    </g>
   </g>
   <g id="matplotlib.axis_1">
    <g id="xtick_1">
     <g id="line2d_1">
      <defs>
       <path id="m7b3a1e670f" d="M 0 0 
L 0 3.5 
" style="stroke: #000000; stroke-width: 0.8"/>
      </defs>
      <g>
       <use xlink:href="#m7b3a1e670f" x="57.681818" y="252" style="stroke: #000000; stroke-width: 0.8"/>
      </g>
     </g>
     <g id="text_1">
      <!-- 0 -->
      <g transform="translate(50.046818 277.23625) scale(0.24 -0.24)">
       <defs>
        <path id="DejaVuSans-30" d="M 2034 4250 
Q 1547 4250 1301 3770 
Q 1056 3291 1056 2328 
Q 1056 1369 1301 889 
Q 1547 409 2034 409 
Q 2525 409 2770 889 
Q 3016 1369 3016 2328 
Q 3016 3291 2770 3770 
Q 2525 4250 2034 4250 
z
M 2034 4750 
Q 2819 4750 3233 4129 
Q 3647 3509 3647 2328 
Q 3647 1150 3233 529 
Q 2819 -91 2034 -91 
Q 1250 -91 836 529 
Q 422 1150 422 2328 
Q 422 3509 836 4129 
Q 1250 4750 2034 4750 
z
" transform="scale(0.015625)"/>
       </defs>
       <use xlink:href="#DejaVuSans-30"/>
      </g>
     </g>
    </g>
    <g id="xtick_2">
     <g id="line2d_2">
      <g>
       <use xlink:href="#m7b3a1e670f" x="168.647727" y="252" style="stroke: #000000; stroke-width: 0.8"/>
      </g>
     </g>
     <g id="text_2">
      <!-- 7 -->
      <g transform="translate(161.012727 277.23625) scale(0.24 -0.24)">
       <defs>
        <path id="DejaVuSans-37" d="M 525 4666 
L 3525 4666 
L 3525 4397 
L 1831 0 
L 1172 0 
L 2766 4134 
L 525 4134 
L 525 4666 
z
" transform="scale(0.015625)"/>
       </defs>
       <use xlink:href="#DejaVuSans-37"/>
      </g>
     </g>
    </g>
    <g id="xtick_3">
     <g id="line2d_3">
      <g>
       <use xlink:href="#m7b3a1e670f" x="295.465909" y="252" style="stroke: #000000; stroke-width: 0.8"/>
      </g>
     </g>
     <g id="text_3">
      <!-- 15 -->
      <g transform="translate(280.195909 277.23625) scale(0.24 -0.24)">
       <defs>
        <path id="DejaVuSans-31" d="M 794 531 
L 1825 531 
L 1825 4091 
L 703 3866 
L 703 4441 
L 1819 4666 
L 2450 4666 
L 2450 531 
L 3481 531 
L 3481 0 
L 794 0 
L 794 531 
z
" transform="scale(0.015625)"/>
        <path id="DejaVuSans-35" d="M 691 4666 
L 3169 4666 
L 3169 4134 
L 1269 4134 
L 1269 2991 
Q 1406 3038 1543 3061 
Q 1681 3084 1819 3084 
Q 2600 3084 3056 2656 
Q 3513 2228 3513 1497 
Q 3513 744 3044 326 
Q 2575 -91 1722 -91 
Q 1428 -91 1123 -41 
Q 819 9 494 109 
L 494 744 
Q 775 591 1075 516 
Q 1375 441 1709 441 
Q 2250 441 2565 725 
Q 2881 1009 2881 1497 
Q 2881 1984 2565 2268 
Q 2250 2553 1709 2553 
Q 1456 2553 1204 2497 
Q 953 2441 691 2322 
L 691 4666 
z
" transform="scale(0.015625)"/>
       </defs>
       <use xlink:href="#DejaVuSans-31"/>
       <use xlink:href="#DejaVuSans-35" x="63.623047"/>
      </g>
     </g>
    </g>
    <g id="text_4">
     <!-- time (weeks) -->
     <g transform="translate(106.430625 304.46375) scale(0.24 -0.24)">
      <defs>
       <path id="DejaVuSans-74" d="M 1172 4494 
L 1172 3500 
L 2356 3500 
L 2356 3053 
L 1172 3053 
L 1172 1153 
Q 1172 725 1289 603 
Q 1406 481 1766 481 
L 2356 481 
L 2356 0 
L 1766 0 
Q 1100 0 847 248 
Q 594 497 594 1153 
L 594 3053 
L 172 3053 
L 172 3500 
L 594 3500 
L 594 4494 
L 1172 4494 
z
" transform="scale(0.015625)"/>
       <path id="DejaVuSans-69" d="M 603 3500 
L 1178 3500 
L 1178 0 
L 603 0 
L 603 3500 
z
M 603 4863 
L 1178 4863 
L 1178 4134 
L 603 4134 
L 603 4863 
z
" transform="scale(0.015625)"/>
       <path id="DejaVuSans-6d" d="M 3328 2828 
Q 3544 3216 3844 3400 
Q 4144 3584 4550 3584 
Q 5097 3584 5394 3201 
Q 5691 2819 5691 2113 
L 5691 0 
L 5113 0 
L 5113 2094 
Q 5113 2597 4934 2840 
Q 4756 3084 4391 3084 
Q 3944 3084 3684 2787 
Q 3425 2491 3425 1978 
L 3425 0 
L 2847 0 
L 2847 2094 
Q 2847 2600 2669 2842 
Q 2491 3084 2119 3084 
Q 1678 3084 1418 2786 
Q 1159 2488 1159 1978 
L 1159 0 
L 581 0 
L 581 3500 
L 1159 3500 
L 1159 2956 
Q 1356 3278 1631 3431 
Q 1906 3584 2284 3584 
Q 2666 3584 2933 3390 
Q 3200 3197 3328 2828 
z
" transform="scale(0.015625)"/>
       <path id="DejaVuSans-65" d="M 3597 1894 
L 3597 1613 
L 953 1613 
Q 991 1019 1311 708 
Q 1631 397 2203 397 
Q 2534 397 2845 478 
Q 3156 559 3463 722 
L 3463 178 
Q 3153 47 2828 -22 
Q 2503 -91 2169 -91 
Q 1331 -91 842 396 
Q 353 884 353 1716 
Q 353 2575 817 3079 
Q 1281 3584 2069 3584 
Q 2775 3584 3186 3129 
Q 3597 2675 3597 1894 
z
M 3022 2063 
Q 3016 2534 2758 2815 
Q 2500 3097 2075 3097 
Q 1594 3097 1305 2825 
Q 1016 2553 972 2059 
L 3022 2063 
z
" transform="scale(0.015625)"/>
       <path id="DejaVuSans-20" transform="scale(0.015625)"/>
       <path id="DejaVuSans-28" d="M 1984 4856 
Q 1566 4138 1362 3434 
Q 1159 2731 1159 2009 
Q 1159 1288 1364 580 
Q 1569 -128 1984 -844 
L 1484 -844 
Q 1016 -109 783 600 
Q 550 1309 550 2009 
Q 550 2706 781 3412 
Q 1013 4119 1484 4856 
L 1984 4856 
z
" transform="scale(0.015625)"/>
       <path id="DejaVuSans-77" d="M 269 3500 
L 844 3500 
L 1563 769 
L 2278 3500 
L 2956 3500 
L 3675 769 
L 4391 3500 
L 4966 3500 
L 4050 0 
L 3372 0 
L 2619 2869 
L 1863 0 
L 1184 0 
L 269 3500 
z
" transform="scale(0.015625)"/>
       <path id="DejaVuSans-6b" d="M 581 4863 
L 1159 4863 
L 1159 1991 
L 2875 3500 
L 3609 3500 
L 1753 1863 
L 3688 0 
L 2938 0 
L 1159 1709 
L 1159 0 
L 581 0 
L 581 4863 
z
" transform="scale(0.015625)"/>
       <path id="DejaVuSans-73" d="M 2834 3397 
L 2834 2853 
Q 2591 2978 2328 3040 
Q 2066 3103 1784 3103 
Q 1356 3103 1142 2972 
Q 928 2841 928 2578 
Q 928 2378 1081 2264 
Q 1234 2150 1697 2047 
L 1894 2003 
Q 2506 1872 2764 1633 
Q 3022 1394 3022 966 
Q 3022 478 2636 193 
Q 2250 -91 1575 -91 
Q 1294 -91 989 -36 
Q 684 19 347 128 
L 347 722 
Q 666 556 975 473 
Q 1284 391 1588 391 
Q 1994 391 2212 530 
Q 2431 669 2431 922 
Q 2431 1156 2273 1281 
Q 2116 1406 1581 1522 
L 1381 1569 
Q 847 1681 609 1914 
Q 372 2147 372 2553 
Q 372 3047 722 3315 
Q 1072 3584 1716 3584 
Q 2034 3584 2315 3537 
Q 2597 3491 2834 3397 
z
" transform="scale(0.015625)"/>
       <path id="DejaVuSans-29" d="M 513 4856 
L 1013 4856 
Q 1481 4119 1714 3412 
Q 1947 2706 1947 2009 
Q 1947 1309 1714 600 
Q 1481 -109 1013 -844 
L 513 -844 
Q 928 -128 1133 580 
Q 1338 1288 1338 2009 
Q 1338 2731 1133 3434 
Q 928 4138 513 4856 
z
" transform="scale(0.015625)"/>
      </defs>
      <use xlink:href="#DejaVuSans-74"/>
      <use xlink:href="#DejaVuSans-69" x="39.208984"/>
      <use xlink:href="#DejaVuSans-6d" x="66.992188"/>
      <use xlink:href="#DejaVuSans-65" x="164.404297"/>
      <use xlink:href="#DejaVuSans-20" x="225.927734"/>
      <use xlink:href="#DejaVuSans-28" x="257.714844"/>
      <use xlink:href="#DejaVuSans-77" x="296.728516"/>
      <use xlink:href="#DejaVuSans-65" x="378.515625"/>
      <use xlink:href="#DejaVuSans-65" x="440.039062"/>
      <use xlink:href="#DejaVuSans-6b" x="501.5625"/>
      <use xlink:href="#DejaVuSans-73" x="559.472656"/>
      <use xlink:href="#DejaVuSans-29" x="611.572266"/>
     </g>
    </g>
   </g>
   <g id="matplotlib.axis_2">
    <g id="ytick_1">
     <g id="line2d_4">
      <defs>
       <path id="mc8ae5f0f45" d="M 0 0 
L -3.5 0 
" style="stroke: #000000; stroke-width: 0.8"/>
      </defs>
      <g>
       <use xlink:href="#mc8ae5f0f45" x="45" y="239.73612" style="stroke: #000000; stroke-width: 0.8"/>
      </g>
     </g>
     <g id="text_5">
      <!-- 0 -->
      <g transform="translate(22.73 248.854245) scale(0.24 -0.24)">
       <use xlink:href="#DejaVuSans-30"/>
      </g>
     </g>
    </g>
    <g id="ytick_2">
     <g id="line2d_5">
      <g>
       <use xlink:href="#mc8ae5f0f45" x="45" y="151.937948" style="stroke: #000000; stroke-width: 0.8"/>
      </g>
     </g>
     <g id="text_6">
      <!-- 10 -->
      <g transform="translate(7.46 161.056073) scale(0.24 -0.24)">
       <use xlink:href="#DejaVuSans-31"/>
       <use xlink:href="#DejaVuSans-30" x="63.623047"/>
      </g>
     </g>
    </g>
    <g id="ytick_3">
     <g id="line2d_6">
      <g>
       <use xlink:href="#mc8ae5f0f45" x="45" y="64.139775" style="stroke: #000000; stroke-width: 0.8"/>
      </g>
     </g>
     <g id="text_7">
      <!-- 20 -->
      <g transform="translate(7.46 73.2579) scale(0.24 -0.24)">
       <defs>
        <path id="DejaVuSans-32" d="M 1228 531 
L 3431 531 
L 3431 0 
L 469 0 
L 469 531 
Q 828 903 1448 1529 
Q 2069 2156 2228 2338 
Q 2531 2678 2651 2914 
Q 2772 3150 2772 3378 
Q 2772 3750 2511 3984 
Q 2250 4219 1831 4219 
Q 1534 4219 1204 4116 
Q 875 4013 500 3803 
L 500 4441 
Q 881 4594 1212 4672 
Q 1544 4750 1819 4750 
Q 2544 4750 2975 4387 
Q 3406 4025 3406 3419 
Q 3406 3131 3298 2873 
Q 3191 2616 2906 2266 
Q 2828 2175 2409 1742 
Q 1991 1309 1228 531 
z
" transform="scale(0.015625)"/>
       </defs>
       <use xlink:href="#DejaVuSans-32"/>
       <use xlink:href="#DejaVuSans-30" x="63.623047"/>
      </g>
     </g>
    </g>
    <g id="ytick_4">
     <g id="line2d_7">
      <g>
       <use xlink:href="#mc8ae5f0f45" x="45" y="116.818679" style="stroke: #000000; stroke-width: 0.8"/>
      </g>
     </g>
     <g id="text_8">
      <!-- 14 -->
      <g transform="translate(7.46 125.936804) scale(0.24 -0.24)">
       <defs>
        <path id="DejaVuSans-34" d="M 2419 4116 
L 825 1625 
L 2419 1625 
L 2419 4116 
z
M 2253 4666 
L 3047 4666 
L 3047 1625 
L 3713 1625 
L 3713 1100 
L 3047 1100 
L 3047 0 
L 2419 0 
L 2419 1100 
L 313 1100 
L 313 1709 
L 2253 4666 
z
" transform="scale(0.015625)"/>
       </defs>
       <use xlink:href="#DejaVuSans-31"/>
       <use xlink:href="#DejaVuSans-34" x="63.623047"/>
      </g>
     </g>
    </g>
    <g id="text_9">
     <!-- research units  -->
     <g transform="translate(-28.406 232.30875) rotate(-90) scale(0.24 -0.24)">
      <defs>
       <path id="DejaVuSans-72" d="M 2631 2963 
Q 2534 3019 2420 3045 
Q 2306 3072 2169 3072 
Q 1681 3072 1420 2755 
Q 1159 2438 1159 1844 
L 1159 0 
L 581 0 
L 581 3500 
L 1159 3500 
L 1159 2956 
Q 1341 3275 1631 3429 
Q 1922 3584 2338 3584 
Q 2397 3584 2469 3576 
Q 2541 3569 2628 3553 
L 2631 2963 
z
" transform="scale(0.015625)"/>
       <path id="DejaVuSans-61" d="M 2194 1759 
Q 1497 1759 1228 1600 
Q 959 1441 959 1056 
Q 959 750 1161 570 
Q 1363 391 1709 391 
Q 2188 391 2477 730 
Q 2766 1069 2766 1631 
L 2766 1759 
L 2194 1759 
z
M 3341 1997 
L 3341 0 
L 2766 0 
L 2766 531 
Q 2569 213 2275 61 
Q 1981 -91 1556 -91 
Q 1019 -91 701 211 
Q 384 513 384 1019 
Q 384 1609 779 1909 
Q 1175 2209 1959 2209 
L 2766 2209 
L 2766 2266 
Q 2766 2663 2505 2880 
Q 2244 3097 1772 3097 
Q 1472 3097 1187 3025 
Q 903 2953 641 2809 
L 641 3341 
Q 956 3463 1253 3523 
Q 1550 3584 1831 3584 
Q 2591 3584 2966 3190 
Q 3341 2797 3341 1997 
z
" transform="scale(0.015625)"/>
       <path id="DejaVuSans-63" d="M 3122 3366 
L 3122 2828 
Q 2878 2963 2633 3030 
Q 2388 3097 2138 3097 
Q 1578 3097 1268 2742 
Q 959 2388 959 1747 
Q 959 1106 1268 751 
Q 1578 397 2138 397 
Q 2388 397 2633 464 
Q 2878 531 3122 666 
L 3122 134 
Q 2881 22 2623 -34 
Q 2366 -91 2075 -91 
Q 1284 -91 818 406 
Q 353 903 353 1747 
Q 353 2603 823 3093 
Q 1294 3584 2113 3584 
Q 2378 3584 2631 3529 
Q 2884 3475 3122 3366 
z
" transform="scale(0.015625)"/>
       <path id="DejaVuSans-68" d="M 3513 2113 
L 3513 0 
L 2938 0 
L 2938 2094 
Q 2938 2591 2744 2837 
Q 2550 3084 2163 3084 
Q 1697 3084 1428 2787 
Q 1159 2491 1159 1978 
L 1159 0 
L 581 0 
L 581 4863 
L 1159 4863 
L 1159 2956 
Q 1366 3272 1645 3428 
Q 1925 3584 2291 3584 
Q 2894 3584 3203 3211 
Q 3513 2838 3513 2113 
z
" transform="scale(0.015625)"/>
       <path id="DejaVuSans-75" d="M 544 1381 
L 544 3500 
L 1119 3500 
L 1119 1403 
Q 1119 906 1312 657 
Q 1506 409 1894 409 
Q 2359 409 2629 706 
Q 2900 1003 2900 1516 
L 2900 3500 
L 3475 3500 
L 3475 0 
L 2900 0 
L 2900 538 
Q 2691 219 2414 64 
Q 2138 -91 1772 -91 
Q 1169 -91 856 284 
Q 544 659 544 1381 
z
M 1991 3584 
L 1991 3584 
z
" transform="scale(0.015625)"/>
       <path id="DejaVuSans-6e" d="M 3513 2113 
L 3513 0 
L 2938 0 
L 2938 2094 
Q 2938 2591 2744 2837 
Q 2550 3084 2163 3084 
Q 1697 3084 1428 2787 
Q 1159 2491 1159 1978 
L 1159 0 
L 581 0 
L 581 3500 
L 1159 3500 
L 1159 2956 
Q 1366 3272 1645 3428 
Q 1925 3584 2291 3584 
Q 2894 3584 3203 3211 
Q 3513 2838 3513 2113 
z
" transform="scale(0.015625)"/>
      </defs>
      <use xlink:href="#DejaVuSans-72"/>
      <use xlink:href="#DejaVuSans-65" x="38.863281"/>
      <use xlink:href="#DejaVuSans-73" x="100.386719"/>
      <use xlink:href="#DejaVuSans-65" x="152.486328"/>
      <use xlink:href="#DejaVuSans-61" x="214.009766"/>
      <use xlink:href="#DejaVuSans-72" x="275.289062"/>
      <use xlink:href="#DejaVuSans-63" x="314.152344"/>
      <use xlink:href="#DejaVuSans-68" x="369.132812"/>
      <use xlink:href="#DejaVuSans-20" x="432.511719"/>
      <use xlink:href="#DejaVuSans-75" x="464.298828"/>
      <use xlink:href="#DejaVuSans-6e" x="527.677734"/>
      <use xlink:href="#DejaVuSans-69" x="591.056641"/>
      <use xlink:href="#DejaVuSans-74" x="618.839844"/>
      <use xlink:href="#DejaVuSans-73" x="658.048828"/>
      <use xlink:href="#DejaVuSans-20" x="710.148438"/>
     </g>
     <!--  completed -->
     <g transform="translate(-1.53125 210.765) rotate(-90) scale(0.24 -0.24)">
      <defs>
       <path id="DejaVuSans-6f" d="M 1959 3097 
Q 1497 3097 1228 2736 
Q 959 2375 959 1747 
Q 959 1119 1226 758 
Q 1494 397 1959 397 
Q 2419 397 2687 759 
Q 2956 1122 2956 1747 
Q 2956 2369 2687 2733 
Q 2419 3097 1959 3097 
z
M 1959 3584 
Q 2709 3584 3137 3096 
Q 3566 2609 3566 1747 
Q 3566 888 3137 398 
Q 2709 -91 1959 -91 
Q 1206 -91 779 398 
Q 353 888 353 1747 
Q 353 2609 779 3096 
Q 1206 3584 1959 3584 
z
" transform="scale(0.015625)"/>
       <path id="DejaVuSans-70" d="M 1159 525 
L 1159 -1331 
L 581 -1331 
L 581 3500 
L 1159 3500 
L 1159 2969 
Q 1341 3281 1617 3432 
Q 1894 3584 2278 3584 
Q 2916 3584 3314 3078 
Q 3713 2572 3713 1747 
Q 3713 922 3314 415 
Q 2916 -91 2278 -91 
Q 1894 -91 1617 61 
Q 1341 213 1159 525 
z
M 3116 1747 
Q 3116 2381 2855 2742 
Q 2594 3103 2138 3103 
Q 1681 3103 1420 2742 
Q 1159 2381 1159 1747 
Q 1159 1113 1420 752 
Q 1681 391 2138 391 
Q 2594 391 2855 752 
Q 3116 1113 3116 1747 
z
" transform="scale(0.015625)"/>
       <path id="DejaVuSans-6c" d="M 603 4863 
L 1178 4863 
L 1178 0 
L 603 0 
L 603 4863 
z
" transform="scale(0.015625)"/>
       <path id="DejaVuSans-64" d="M 2906 2969 
L 2906 4863 
L 3481 4863 
L 3481 0 
L 2906 0 
L 2906 525 
Q 2725 213 2448 61 
Q 2172 -91 1784 -91 
Q 1150 -91 751 415 
Q 353 922 353 1747 
Q 353 2572 751 3078 
Q 1150 3584 1784 3584 
Q 2172 3584 2448 3432 
Q 2725 3281 2906 2969 
z
M 947 1747 
Q 947 1113 1208 752 
Q 1469 391 1925 391 
Q 2381 391 2643 752 
Q 2906 1113 2906 1747 
Q 2906 2381 2643 2742 
Q 2381 3103 1925 3103 
Q 1469 3103 1208 2742 
Q 947 2381 947 1747 
z
" transform="scale(0.015625)"/>
      </defs>
      <use xlink:href="#DejaVuSans-20"/>
      <use xlink:href="#DejaVuSans-63" x="31.787109"/>
      <use xlink:href="#DejaVuSans-6f" x="86.767578"/>
      <use xlink:href="#DejaVuSans-6d" x="147.949219"/>
      <use xlink:href="#DejaVuSans-70" x="245.361328"/>
      <use xlink:href="#DejaVuSans-6c" x="308.837891"/>
      <use xlink:href="#DejaVuSans-65" x="336.621094"/>
      <use xlink:href="#DejaVuSans-74" x="398.144531"/>
      <use xlink:href="#DejaVuSans-65" x="437.353516"/>
      <use xlink:href="#DejaVuSans-64" x="498.876953"/>
     </g>
    </g>
   </g>
   <g id="line2d_8">
    <path d="M 57.681818 239.73612 
L 73.534091 238.831799 
L 89.386364 237.664083 
L 105.238636 236.303212 
L 121.090909 235.065257 
L 136.943182 233.555129 
L 152.795455 231.851844 
L 168.647727 229.885165 
L 184.5 227.27756 
L 200.352273 224.617275 
L 216.204545 221.298504 
L 232.056818 217.066632 
L 247.909091 211.500228 
L 263.761364 202.825768 
L 279.613636 188.198593 
L 295.465909 157.12682 
L 311.318182 49.249205 
" clip-path="url(#p6754be11d5)" style="fill: none; stroke: #4b0082; stroke-width: 3; stroke-linecap: square"/>
   </g>
   <g id="line2d_9">
    <path d="M 57.681818 239.73612 
L 73.534091 239.73612 
L 89.386364 239.73612 
L 105.238636 239.73612 
L 121.090909 239.73612 
L 136.943182 239.73612 
L 152.795455 239.73612 
L 168.647727 230.956303 
L 184.5 230.956303 
L 200.352273 230.956303 
L 216.204545 230.956303 
L 232.056818 230.956303 
L 247.909091 230.956303 
L 263.761364 230.956303 
L 279.613636 204.616851 
L 295.465909 187.057217 
L 311.318182 46.580141 
" clip-path="url(#p6754be11d5)" style="fill: none; stroke-dasharray: 5.55,2.4; stroke-dashoffset: 0; stroke: #4b0082; stroke-width: 1.5"/>
   </g>
   <g id="line2d_10">
    <path d="M 57.681818 239.73612 
L 73.534091 239.73612 
L 89.386364 239.73612 
L 105.238636 239.73612 
L 121.090909 239.73612 
L 136.943182 239.73612 
L 152.795455 239.73612 
L 168.647727 239.73612 
L 184.5 239.73612 
L 200.352273 239.73612 
L 216.204545 239.73612 
L 232.056818 239.73612 
L 247.909091 222.176486 
L 263.761364 195.837034 
L 279.613636 187.057217 
L 295.465909 151.937948 
L 311.318182 46.580141 
" clip-path="url(#p6754be11d5)" style="fill: none; stroke-dasharray: 5.55,2.4; stroke-dashoffset: 0; stroke: #4b0082; stroke-width: 1.5"/>
   </g>
   <g id="line2d_11">
    <path d="M 57.681818 239.73612 
L 73.534091 230.956303 
L 89.386364 230.956303 
L 105.238636 222.176486 
L 121.090909 222.176486 
L 136.943182 222.176486 
L 152.795455 222.176486 
L 168.647727 222.176486 
L 184.5 222.176486 
L 200.352273 213.396668 
L 216.204545 213.396668 
L 232.056818 213.396668 
L 247.909091 213.396668 
L 263.761364 204.616851 
L 279.613636 204.616851 
L 295.465909 81.69941 
L 311.318182 46.580141 
" clip-path="url(#p6754be11d5)" style="fill: none; stroke-dasharray: 5.55,2.4; stroke-dashoffset: 0; stroke: #4b0082; stroke-width: 1.5"/>
   </g>
   <g id="line2d_12">
    <path d="M 57.681818 239.73612 
L 73.534091 239.121533 
L 89.386364 238.32257 
L 105.238636 237.541166 
L 121.090909 236.505147 
L 136.943182 235.354991 
L 152.795455 234.108257 
L 168.647727 232.264496 
L 184.5 230.508532 
L 200.352273 228.489174 
L 216.204545 225.574275 
L 232.056818 221.553119 
L 247.909091 215.934036 
L 263.761364 206.820585 
L 279.613636 187.197694 
L 295.465909 112.718504 
L 311.318182 75.606216 
" clip-path="url(#p6754be11d5)" style="fill: none; stroke: #1f77b4; stroke-width: 3; stroke-linecap: square"/>
   </g>
   <g id="line2d_13">
    <path d="M 57.681818 239.73612 
L 73.534091 239.73612 
L 89.386364 222.176486 
L 105.238636 213.396668 
L 121.090909 213.396668 
L 136.943182 213.396668 
L 152.795455 213.396668 
L 168.647727 213.396668 
L 184.5 213.396668 
L 200.352273 213.396668 
L 216.204545 213.396668 
L 232.056818 213.396668 
L 247.909091 204.616851 
L 263.761364 204.616851 
L 279.613636 178.277399 
L 295.465909 81.69941 
L 311.318182 64.139775 
" clip-path="url(#p6754be11d5)" style="fill: none; stroke-dasharray: 5.55,2.4; stroke-dashoffset: 0; stroke: #1f77b4; stroke-width: 1.5"/>
   </g>
   <g id="line2d_14">
    <path d="M 57.681818 239.73612 
L 73.534091 239.73612 
L 89.386364 239.73612 
L 105.238636 239.73612 
L 121.090909 239.73612 
L 136.943182 239.73612 
L 152.795455 239.73612 
L 168.647727 239.73612 
L 184.5 239.73612 
L 200.352273 239.73612 
L 216.204545 222.176486 
L 232.056818 213.396668 
L 247.909091 213.396668 
L 263.761364 178.277399 
L 279.613636 151.937948 
L 295.465909 55.359958 
L 311.318182 55.359958 
" clip-path="url(#p6754be11d5)" style="fill: none; stroke-dasharray: 5.55,2.4; stroke-dashoffset: 0; stroke: #1f77b4; stroke-width: 1.5"/>
   </g>
   <g id="line2d_15">
    <path d="M 57.681818 239.73612 
L 73.534091 239.73612 
L 89.386364 239.73612 
L 105.238636 239.73612 
L 121.090909 239.73612 
L 136.943182 239.73612 
L 152.795455 239.73612 
L 168.647727 230.956303 
L 184.5 230.956303 
L 200.352273 230.956303 
L 216.204545 230.956303 
L 232.056818 230.956303 
L 247.909091 222.176486 
L 263.761364 213.396668 
L 279.613636 134.378313 
L 295.465909 90.479227 
L 311.318182 72.919592 
" clip-path="url(#p6754be11d5)" style="fill: none; stroke-dasharray: 5.55,2.4; stroke-dashoffset: 0; stroke: #1f77b4; stroke-width: 1.5"/>
   </g>
   <g id="line2d_16">
    <path d="M 57.681818 239.73612 
L 73.534091 239.305909 
L 89.386364 238.691322 
L 105.238636 238.120634 
L 121.090909 237.532386 
L 136.943182 236.680744 
L 152.795455 235.714964 
L 168.647727 234.47701 
L 184.5 232.861523 
L 200.352273 230.59633 
L 216.204545 226.619073 
L 232.056818 220.007871 
L 247.909091 203.72131 
L 263.761364 162.86882 
L 279.613636 132.350175 
L 295.465909 113.903779 
L 311.318182 106.467274 
" clip-path="url(#p6754be11d5)" style="fill: none; stroke: #ffa500; stroke-width: 3; stroke-linecap: square"/>
   </g>
   <g id="line2d_17">
    <path d="M 57.681818 239.73612 
L 73.534091 239.73612 
L 89.386364 239.73612 
L 105.238636 239.73612 
L 121.090909 239.73612 
L 136.943182 239.73612 
L 152.795455 230.956303 
L 168.647727 230.956303 
L 184.5 230.956303 
L 200.352273 230.956303 
L 216.204545 230.956303 
L 232.056818 204.616851 
L 247.909091 204.616851 
L 263.761364 160.717765 
L 279.613636 151.937948 
L 295.465909 125.598496 
L 311.318182 99.259044 
" clip-path="url(#p6754be11d5)" style="fill: none; stroke-dasharray: 5.55,2.4; stroke-dashoffset: 0; stroke: #ffa500; stroke-width: 1.5"/>
   </g>
   <g id="line2d_18">
    <path d="M 57.681818 239.73612 
L 73.534091 239.73612 
L 89.386364 239.73612 
L 105.238636 230.956303 
L 121.090909 230.956303 
L 136.943182 230.956303 
L 152.795455 230.956303 
L 168.647727 230.956303 
L 184.5 213.396668 
L 200.352273 213.396668 
L 216.204545 213.396668 
L 232.056818 195.837034 
L 247.909091 187.057217 
L 263.761364 178.277399 
L 279.613636 116.818679 
L 295.465909 116.818679 
L 311.318182 116.818679 
" clip-path="url(#p6754be11d5)" style="fill: none; stroke-dasharray: 5.55,2.4; stroke-dashoffset: 0; stroke: #ffa500; stroke-width: 1.5"/>
   </g>
   <g id="line2d_19">
    <path d="M 57.681818 239.73612 
L 73.534091 239.73612 
L 89.386364 239.73612 
L 105.238636 239.73612 
L 121.090909 239.73612 
L 136.943182 239.73612 
L 152.795455 239.73612 
L 168.647727 239.73612 
L 184.5 239.73612 
L 200.352273 239.73612 
L 216.204545 239.73612 
L 232.056818 239.73612 
L 247.909091 195.837034 
L 263.761364 160.717765 
L 279.613636 134.378313 
L 295.465909 116.818679 
L 311.318182 108.038861 
" clip-path="url(#p6754be11d5)" style="fill: none; stroke-dasharray: 5.55,2.4; stroke-dashoffset: 0; stroke: #ffa500; stroke-width: 1.5"/>
   </g>
   <g id="patch_3">
    <path d="M 45 252 
L 45 34.56 
" style="fill: none; stroke: #000000; stroke-width: 0.8; stroke-linejoin: miter; stroke-linecap: square"/>
   </g>
   <g id="patch_4">
    <path d="M 45 252 
L 324 252 
" style="fill: none; stroke: #000000; stroke-width: 0.8; stroke-linejoin: miter; stroke-linecap: square"/>
   </g>
  </g>
 </g>
 <defs>
  <clipPath id="p6754be11d5">
   <rect x="45" y="34.56" width="279" height="217.44"/>
  </clipPath>
 </defs>
</svg>
