<?xml version="1.0" encoding="utf-8" standalone="no"?>
<!DOCTYPE svg PUBLIC "-//W3C//DTD SVG 1.1//EN"
  "http://www.w3.org/Graphics/SVG/1.1/DTD/svg11.dtd">
<svg xmlns:xlink="http://www.w3.org/1999/xlink" width="385.04225pt" height="289.295pt" viewBox="0 0 385.04225 289.295" xmlns="http://www.w3.org/2000/svg" version="1.1">
 <metadata>
  <rdf:RDF xmlns:dc="http://purl.org/dc/elements/1.1/" xmlns:cc="http://creativecommons.org/ns#" xmlns:rdf="http://www.w3.org/1999/02/22-rdf-syntax-ns#">
   <cc:Work>
    <dc:type rdf:resource="http://purl.org/dc/dcmitype/StillImage"/>
    <dc:date>2024-04-29T17:05:23.371701</dc:date>
    <dc:format>image/svg+xml</dc:format>
    <dc:creator>
     <cc:Agent>
      <dc:title>Matplotlib v3.8.0, https://matplotlib.org/</dc:title>
     </cc:Agent>
    </dc:creator>
   </cc:Work>
  </rdf:RDF>
 </metadata>
 <defs>
  <style type="text/css">*{stroke-linejoin: round; stroke-linecap: butt}</style>
 </defs>
 <g id="figure_1">
  <g id="patch_1">
   <path d="M -0 289.295 
L 385.04225 289.295 
L 385.04225 0 
L -0 0 
z
" style="fill: #ffffff"/>
  </g>
  <g id="axes_1">
   <g id="patch_2">
    <path d="M 98.84225 224.64 
L 377.84225 224.64 
L 377.84225 7.2 
L 98.84225 7.2 
z
" style="fill: #ffffff"/>
   </g>
   <g id="PolyCollection_1">
    <defs>
     <path id="ma53696cc59" d="M 111.524068 -91.026206 
L 111.524068 -91.026206 
L 127.376341 -194.935609 
L 143.228614 -209.055549 
L 159.080886 -210.830038 
L 174.933159 -212.23427 
L 190.785432 -213.637713 
L 206.637705 -215.163768 
L 222.489977 -216.911325 
L 238.34225 -218.794904 
L 254.194523 -220.443247 
L 270.046795 -222.061778 
L 285.899068 -223.613888 
L 301.751341 -225.424076 
L 317.603614 -227.069424 
L 333.455886 -228.790882 
L 349.308159 -230.408368 
L 365.160432 -232.242957 
L 365.160432 -266.965837 
L 365.160432 -266.965837 
L 349.308159 -265.572037 
L 333.455886 -263.944661 
L 317.603614 -262.09183 
L 301.751341 -260.54173 
L 285.899068 -258.464673 
L 270.046795 -256.458965 
L 254.194523 -254.058481 
L 238.34225 -251.654865 
L 222.489977 -248.909986 
L 206.637705 -246.292628 
L 190.785432 -243.503183 
L 174.933159 -240.887609 
L 159.080886 -238.042225 
L 143.228614 -235.287086 
L 127.376341 -235.669896 
L 111.524068 -91.026206 
z
" style="stroke: #dc143c; stroke-opacity: 0.2"/>
    </defs>
    <g clip-path="url(#pc586758a24)">
     <use xlink:href="#ma53696cc59" x="0" y="289.295" style="fill: #dc143c; fill-opacity: 0.2; stroke: #dc143c; stroke-opacity: 0.2"/>
    </g>
   </g>
   <g id="PolyCollection_2">
    <defs>
     <path id="m71b282c854" d="M 111.524068 -91.026206 
L 111.524068 -91.026206 
L 127.376341 -77.603527 
L 143.228614 -74.538636 
L 159.080886 -78.141602 
L 174.933159 -88.367089 
L 190.785432 -103.595168 
L 206.637705 -118.593043 
L 222.489977 -135.061362 
L 238.34225 -150.109455 
L 254.194523 -163.045647 
L 270.046795 -173.503382 
L 285.899068 -182.409907 
L 301.751341 -188.58163 
L 317.603614 -195.45144 
L 333.455886 -203.612675 
L 349.308159 -213.538075 
L 365.160432 -219.025604 
L 365.160432 -253.746629 
L 365.160432 -253.746629 
L 349.308159 -253.502119 
L 333.455886 -255.093002 
L 317.603614 -255.397388 
L 301.751341 -254.657422 
L 285.899068 -253.532325 
L 270.046795 -252.325423 
L 254.194523 -250.660225 
L 238.34225 -247.059152 
L 222.489977 -241.452138 
L 206.637705 -232.949848 
L 190.785432 -220.885249 
L 174.933159 -200.930465 
L 159.080886 -176.022502 
L 143.228614 -144.755561 
L 127.376341 -118.449556 
L 111.524068 -91.026206 
z
" style="stroke: #4b0082; stroke-opacity: 0.2"/>
    </defs>
    <g clip-path="url(#pc586758a24)">
     <use xlink:href="#m71b282c854" x="0" y="289.295" style="fill: #4b0082; fill-opacity: 0.2; stroke: #4b0082; stroke-opacity: 0.2"/>
    </g>
   </g>
   <g id="PolyCollection_3">
    <defs>
     <path id="mcb8e7bc654" d="M 111.524068 -91.026206 
L 111.524068 -91.026206 
L 127.376341 -88.434562 
L 143.228614 -86.043701 
L 159.080886 -84.301438 
L 174.933159 -82.599185 
L 190.785432 -81.303934 
L 206.637705 -80.630519 
L 222.489977 -80.317188 
L 238.34225 -81.303916 
L 254.194523 -83.204646 
L 270.046795 -86.084972 
L 285.899068 -89.291739 
L 301.751341 -93.847454 
L 317.603614 -98.264945 
L 333.455886 -103.999017 
L 349.308159 -117.018313 
L 365.160432 -214.845437 
L 365.160432 -244.815579 
L 365.160432 -244.815579 
L 349.308159 -228.907838 
L 333.455886 -215.556458 
L 317.603614 -208.129899 
L 301.751341 -200.226799 
L 285.899068 -190.551243 
L 270.046795 -180.383251 
L 254.194523 -171.404185 
L 238.34225 -160.523126 
L 222.489977 -150.210489 
L 206.637705 -139.487247 
L 190.785432 -129.556917 
L 174.933159 -120.767189 
L 159.080886 -112.377557 
L 143.228614 -105.479753 
L 127.376341 -97.752166 
L 111.524068 -91.026206 
z
" style="stroke: #1f77b4; stroke-opacity: 0.2"/>
    </defs>
    <g clip-path="url(#pc586758a24)">
     <use xlink:href="#mcb8e7bc654" x="0" y="289.295" style="fill: #1f77b4; fill-opacity: 0.2; stroke: #1f77b4; stroke-opacity: 0.2"/>
    </g>
   </g>
   <g id="PolyCollection_4">
    <defs>
     <path id="mf5c3f0ac89" d="M 111.524068 -91.026206 
L 111.524068 -91.026206 
L 127.376341 -88.769804 
L 143.228614 -88.544026 
L 159.080886 -87.938364 
L 174.933159 -88.528839 
L 190.785432 -89.069998 
L 206.637705 -88.811805 
L 222.489977 -87.822342 
L 238.34225 -86.693435 
L 254.194523 -86.834479 
L 270.046795 -86.902349 
L 285.899068 -86.220863 
L 301.751341 -86.501581 
L 317.603614 -86.452339 
L 333.455886 -87.376781 
L 349.308159 -89.740139 
L 365.160432 -216.879586 
L 365.160432 -248.16757 
L 365.160432 -248.16757 
L 349.308159 -164.918107 
L 333.455886 -156.575069 
L 317.603614 -150.20269 
L 301.751341 -143.581368 
L 285.899068 -138.113575 
L 270.046795 -131.469451 
L 254.194523 -126.85945 
L 238.34225 -123.212077 
L 222.489977 -117.471184 
L 206.637705 -112.215634 
L 190.785432 -108.646694 
L 174.933159 -106.420661 
L 159.080886 -103.58509 
L 143.228614 -99.42161 
L 127.376341 -96.445112 
L 111.524068 -91.026206 
z
" style="stroke: #ffa500; stroke-opacity: 0.2"/>
    </defs>
    <g clip-path="url(#pc586758a24)">
     <use xlink:href="#mf5c3f0ac89" x="0" y="289.295" style="fill: #ffa500; fill-opacity: 0.2; stroke: #ffa500; stroke-opacity: 0.2"/>
    </g>
   </g>
   <g id="matplotlib.axis_1">
    <g id="xtick_1">
     <g id="line2d_1">
      <defs>
       <path id="m02c259ceec" d="M 0 0 
L 0 3.5 
" style="stroke: #000000; stroke-width: 0.8"/>
      </defs>
      <g>
       <use xlink:href="#m02c259ceec" x="111.524068" y="224.64" style="stroke: #000000; stroke-width: 0.8"/>
      </g>
     </g>
     <g id="text_1">
      <!-- 0 -->
      <g transform="translate(103.889068 249.87625) scale(0.24 -0.24)">
       <defs>
        <path id="DejaVuSans-30" d="M 2034 4250 
Q 1547 4250 1301 3770 
Q 1056 3291 1056 2328 
Q 1056 1369 1301 889 
Q 1547 409 2034 409 
Q 2525 409 2770 889 
Q 3016 1369 3016 2328 
Q 3016 3291 2770 3770 
Q 2525 4250 2034 4250 
z
M 2034 4750 
Q 2819 4750 3233 4129 
Q 3647 3509 3647 2328 
Q 3647 1150 3233 529 
Q 2819 -91 2034 -91 
Q 1250 -91 836 529 
Q 422 1150 422 2328 
Q 422 3509 836 4129 
Q 1250 4750 2034 4750 
z
" transform="scale(0.015625)"/>
       </defs>
       <use xlink:href="#DejaVuSans-30"/>
      </g>
     </g>
    </g>
    <g id="xtick_2">
     <g id="line2d_2">
      <g>
       <use xlink:href="#m02c259ceec" x="222.489977" y="224.64" style="stroke: #000000; stroke-width: 0.8"/>
      </g>
     </g>
     <g id="text_2">
      <!-- 7 -->
      <g transform="translate(214.854977 249.87625) scale(0.24 -0.24)">
       <defs>
        <path id="DejaVuSans-37" d="M 525 4666 
L 3525 4666 
L 3525 4397 
L 1831 0 
L 1172 0 
L 2766 4134 
L 525 4134 
L 525 4666 
z
" transform="scale(0.015625)"/>
       </defs>
       <use xlink:href="#DejaVuSans-37"/>
      </g>
     </g>
    </g>
    <g id="xtick_3">
     <g id="line2d_3">
      <g>
       <use xlink:href="#m02c259ceec" x="349.308159" y="224.64" style="stroke: #000000; stroke-width: 0.8"/>
      </g>
     </g>
     <g id="text_3">
      <!-- 15 -->
      <g transform="translate(334.038159 249.87625) scale(0.24 -0.24)">
       <defs>
        <path id="DejaVuSans-31" d="M 794 531 
L 1825 531 
L 1825 4091 
L 703 3866 
L 703 4441 
L 1819 4666 
L 2450 4666 
L 2450 531 
L 3481 531 
L 3481 0 
L 794 0 
L 794 531 
z
" transform="scale(0.015625)"/>
        <path id="DejaVuSans-35" d="M 691 4666 
L 3169 4666 
L 3169 4134 
L 1269 4134 
L 1269 2991 
Q 1406 3038 1543 3061 
Q 1681 3084 1819 3084 
Q 2600 3084 3056 2656 
Q 3513 2228 3513 1497 
Q 3513 744 3044 326 
Q 2575 -91 1722 -91 
Q 1428 -91 1123 -41 
Q 819 9 494 109 
L 494 744 
Q 775 591 1075 516 
Q 1375 441 1709 441 
Q 2250 441 2565 725 
Q 2881 1009 2881 1497 
Q 2881 1984 2565 2268 
Q 2250 2553 1709 2553 
Q 1456 2553 1204 2497 
Q 953 2441 691 2322 
L 691 4666 
z
" transform="scale(0.015625)"/>
       </defs>
       <use xlink:href="#DejaVuSans-31"/>
       <use xlink:href="#DejaVuSans-35" x="63.623047"/>
      </g>
     </g>
    </g>
    <g id="text_4">
     <!-- time (weeks) -->
     <g transform="translate(160.272875 277.10375) scale(0.24 -0.24)">
      <defs>
       <path id="DejaVuSans-74" d="M 1172 4494 
L 1172 3500 
L 2356 3500 
L 2356 3053 
L 1172 3053 
L 1172 1153 
Q 1172 725 1289 603 
Q 1406 481 1766 481 
L 2356 481 
L 2356 0 
L 1766 0 
Q 1100 0 847 248 
Q 594 497 594 1153 
L 594 3053 
L 172 3053 
L 172 3500 
L 594 3500 
L 594 4494 
L 1172 4494 
z
" transform="scale(0.015625)"/>
       <path id="DejaVuSans-69" d="M 603 3500 
L 1178 3500 
L 1178 0 
L 603 0 
L 603 3500 
z
M 603 4863 
L 1178 4863 
L 1178 4134 
L 603 4134 
L 603 4863 
z
" transform="scale(0.015625)"/>
       <path id="DejaVuSans-6d" d="M 3328 2828 
Q 3544 3216 3844 3400 
Q 4144 3584 4550 3584 
Q 5097 3584 5394 3201 
Q 5691 2819 5691 2113 
L 5691 0 
L 5113 0 
L 5113 2094 
Q 5113 2597 4934 2840 
Q 4756 3084 4391 3084 
Q 3944 3084 3684 2787 
Q 3425 2491 3425 1978 
L 3425 0 
L 2847 0 
L 2847 2094 
Q 2847 2600 2669 2842 
Q 2491 3084 2119 3084 
Q 1678 3084 1418 2786 
Q 1159 2488 1159 1978 
L 1159 0 
L 581 0 
L 581 3500 
L 1159 3500 
L 1159 2956 
Q 1356 3278 1631 3431 
Q 1906 3584 2284 3584 
Q 2666 3584 2933 3390 
Q 3200 3197 3328 2828 
z
" transform="scale(0.015625)"/>
       <path id="DejaVuSans-65" d="M 3597 1894 
L 3597 1613 
L 953 1613 
Q 991 1019 1311 708 
Q 1631 397 2203 397 
Q 2534 397 2845 478 
Q 3156 559 3463 722 
L 3463 178 
Q 3153 47 2828 -22 
Q 2503 -91 2169 -91 
Q 1331 -91 842 396 
Q 353 884 353 1716 
Q 353 2575 817 3079 
Q 1281 3584 2069 3584 
Q 2775 3584 3186 3129 
Q 3597 2675 3597 1894 
z
M 3022 2063 
Q 3016 2534 2758 2815 
Q 2500 3097 2075 3097 
Q 1594 3097 1305 2825 
Q 1016 2553 972 2059 
L 3022 2063 
z
" transform="scale(0.015625)"/>
       <path id="DejaVuSans-20" transform="scale(0.015625)"/>
       <path id="DejaVuSans-28" d="M 1984 4856 
Q 1566 4138 1362 3434 
Q 1159 2731 1159 2009 
Q 1159 1288 1364 580 
Q 1569 -128 1984 -844 
L 1484 -844 
Q 1016 -109 783 600 
Q 550 1309 550 2009 
Q 550 2706 781 3412 
Q 1013 4119 1484 4856 
L 1984 4856 
z
" transform="scale(0.015625)"/>
       <path id="DejaVuSans-77" d="M 269 3500 
L 844 3500 
L 1563 769 
L 2278 3500 
L 2956 3500 
L 3675 769 
L 4391 3500 
L 4966 3500 
L 4050 0 
L 3372 0 
L 2619 2869 
L 1863 0 
L 1184 0 
L 269 3500 
z
" transform="scale(0.015625)"/>
       <path id="DejaVuSans-6b" d="M 581 4863 
L 1159 4863 
L 1159 1991 
L 2875 3500 
L 3609 3500 
L 1753 1863 
L 3688 0 
L 2938 0 
L 1159 1709 
L 1159 0 
L 581 0 
L 581 4863 
z
" transform="scale(0.015625)"/>
       <path id="DejaVuSans-73" d="M 2834 3397 
L 2834 2853 
Q 2591 2978 2328 3040 
Q 2066 3103 1784 3103 
Q 1356 3103 1142 2972 
Q 928 2841 928 2578 
Q 928 2378 1081 2264 
Q 1234 2150 1697 2047 
L 1894 2003 
Q 2506 1872 2764 1633 
Q 3022 1394 3022 966 
Q 3022 478 2636 193 
Q 2250 -91 1575 -91 
Q 1294 -91 989 -36 
Q 684 19 347 128 
L 347 722 
Q 666 556 975 473 
Q 1284 391 1588 391 
Q 1994 391 2212 530 
Q 2431 669 2431 922 
Q 2431 1156 2273 1281 
Q 2116 1406 1581 1522 
L 1381 1569 
Q 847 1681 609 1914 
Q 372 2147 372 2553 
Q 372 3047 722 3315 
Q 1072 3584 1716 3584 
Q 2034 3584 2315 3537 
Q 2597 3491 2834 3397 
z
" transform="scale(0.015625)"/>
       <path id="DejaVuSans-29" d="M 513 4856 
L 1013 4856 
Q 1481 4119 1714 3412 
Q 1947 2706 1947 2009 
Q 1947 1309 1714 600 
Q 1481 -109 1013 -844 
L 513 -844 
Q 928 -128 1133 580 
Q 1338 1288 1338 2009 
Q 1338 2731 1133 3434 
Q 928 4138 513 4856 
z
" transform="scale(0.015625)"/>
      </defs>
      <use xlink:href="#DejaVuSans-74"/>
      <use xlink:href="#DejaVuSans-69" x="39.208984"/>
      <use xlink:href="#DejaVuSans-6d" x="66.992188"/>
      <use xlink:href="#DejaVuSans-65" x="164.404297"/>
      <use xlink:href="#DejaVuSans-20" x="225.927734"/>
      <use xlink:href="#DejaVuSans-28" x="257.714844"/>
      <use xlink:href="#DejaVuSans-77" x="296.728516"/>
      <use xlink:href="#DejaVuSans-65" x="378.515625"/>
      <use xlink:href="#DejaVuSans-65" x="440.039062"/>
      <use xlink:href="#DejaVuSans-6b" x="501.5625"/>
      <use xlink:href="#DejaVuSans-73" x="559.472656"/>
      <use xlink:href="#DejaVuSans-29" x="611.572266"/>
     </g>
    </g>
   </g>
   <g id="matplotlib.axis_2">
    <g id="ytick_1">
     <g id="line2d_4">
      <defs>
       <path id="m1e8c7c9946" d="M 0 0 
L -3.5 0 
" style="stroke: #000000; stroke-width: 0.8"/>
      </defs>
      <g>
       <use xlink:href="#m1e8c7c9946" x="98.84225" y="198.268794" style="stroke: #000000; stroke-width: 0.8"/>
      </g>
     </g>
     <g id="text_5">
      <!-- 0 -->
      <g transform="translate(76.57225 207.386919) scale(0.24 -0.24)">
       <use xlink:href="#DejaVuSans-30"/>
      </g>
     </g>
    </g>
    <g id="ytick_2">
     <g id="line2d_5">
      <g>
       <use xlink:href="#m1e8c7c9946" x="98.84225" y="115.911904" style="stroke: #000000; stroke-width: 0.8"/>
      </g>
     </g>
     <g id="text_6">
      <!-- 10 -->
      <g transform="translate(61.30225 125.030029) scale(0.24 -0.24)">
       <use xlink:href="#DejaVuSans-31"/>
       <use xlink:href="#DejaVuSans-30" x="63.623047"/>
      </g>
     </g>
    </g>
    <g id="ytick_3">
     <g id="line2d_6">
      <g>
       <use xlink:href="#m1e8c7c9946" x="98.84225" y="33.555014" style="stroke: #000000; stroke-width: 0.8"/>
      </g>
     </g>
     <g id="text_7">
      <!-- 20 -->
      <g transform="translate(61.30225 42.673139) scale(0.24 -0.24)">
       <defs>
        <path id="DejaVuSans-32" d="M 1228 531 
L 3431 531 
L 3431 0 
L 469 0 
L 469 531 
Q 828 903 1448 1529 
Q 2069 2156 2228 2338 
Q 2531 2678 2651 2914 
Q 2772 3150 2772 3378 
Q 2772 3750 2511 3984 
Q 2250 4219 1831 4219 
Q 1534 4219 1204 4116 
Q 875 4013 500 3803 
L 500 4441 
Q 881 4594 1212 4672 
Q 1544 4750 1819 4750 
Q 2544 4750 2975 4387 
Q 3406 4025 3406 3419 
Q 3406 3131 3298 2873 
Q 3191 2616 2906 2266 
Q 2828 2175 2409 1742 
Q 1991 1309 1228 531 
z
" transform="scale(0.015625)"/>
       </defs>
       <use xlink:href="#DejaVuSans-32"/>
       <use xlink:href="#DejaVuSans-30" x="63.623047"/>
      </g>
     </g>
    </g>
    <g id="ytick_4">
     <g id="line2d_7">
      <g>
       <use xlink:href="#m1e8c7c9946" x="98.84225" y="82.969148" style="stroke: #000000; stroke-width: 0.8"/>
      </g>
     </g>
     <g id="text_8">
      <!-- 14 -->
      <g transform="translate(61.30225 92.087273) scale(0.24 -0.24)">
       <defs>
        <path id="DejaVuSans-34" d="M 2419 4116 
L 825 1625 
L 2419 1625 
L 2419 4116 
z
M 2253 4666 
L 3047 4666 
L 3047 1625 
L 3713 1625 
L 3713 1100 
L 3047 1100 
L 3047 0 
L 2419 0 
L 2419 1100 
L 313 1100 
L 313 1709 
L 2253 4666 
z
" transform="scale(0.015625)"/>
       </defs>
       <use xlink:href="#DejaVuSans-31"/>
       <use xlink:href="#DejaVuSans-34" x="63.623047"/>
      </g>
     </g>
    </g>
    <g id="text_9">
     <!-- research units  -->
     <g transform="translate(25.43625 204.94875) rotate(-90) scale(0.24 -0.24)">
      <defs>
       <path id="DejaVuSans-72" d="M 2631 2963 
Q 2534 3019 2420 3045 
Q 2306 3072 2169 3072 
Q 1681 3072 1420 2755 
Q 1159 2438 1159 1844 
L 1159 0 
L 581 0 
L 581 3500 
L 1159 3500 
L 1159 2956 
Q 1341 3275 1631 3429 
Q 1922 3584 2338 3584 
Q 2397 3584 2469 3576 
Q 2541 3569 2628 3553 
L 2631 2963 
z
" transform="scale(0.015625)"/>
       <path id="DejaVuSans-61" d="M 2194 1759 
Q 1497 1759 1228 1600 
Q 959 1441 959 1056 
Q 959 750 1161 570 
Q 1363 391 1709 391 
Q 2188 391 2477 730 
Q 2766 1069 2766 1631 
L 2766 1759 
L 2194 1759 
z
M 3341 1997 
L 3341 0 
L 2766 0 
L 2766 531 
Q 2569 213 2275 61 
Q 1981 -91 1556 -91 
Q 1019 -91 701 211 
Q 384 513 384 1019 
Q 384 1609 779 1909 
Q 1175 2209 1959 2209 
L 2766 2209 
L 2766 2266 
Q 2766 2663 2505 2880 
Q 2244 3097 1772 3097 
Q 1472 3097 1187 3025 
Q 903 2953 641 2809 
L 641 3341 
Q 956 3463 1253 3523 
Q 1550 3584 1831 3584 
Q 2591 3584 2966 3190 
Q 3341 2797 3341 1997 
z
" transform="scale(0.015625)"/>
       <path id="DejaVuSans-63" d="M 3122 3366 
L 3122 2828 
Q 2878 2963 2633 3030 
Q 2388 3097 2138 3097 
Q 1578 3097 1268 2742 
Q 959 2388 959 1747 
Q 959 1106 1268 751 
Q 1578 397 2138 397 
Q 2388 397 2633 464 
Q 2878 531 3122 666 
L 3122 134 
Q 2881 22 2623 -34 
Q 2366 -91 2075 -91 
Q 1284 -91 818 406 
Q 353 903 353 1747 
Q 353 2603 823 3093 
Q 1294 3584 2113 3584 
Q 2378 3584 2631 3529 
Q 2884 3475 3122 3366 
z
" transform="scale(0.015625)"/>
       <path id="DejaVuSans-68" d="M 3513 2113 
L 3513 0 
L 2938 0 
L 2938 2094 
Q 2938 2591 2744 2837 
Q 2550 3084 2163 3084 
Q 1697 3084 1428 2787 
Q 1159 2491 1159 1978 
L 1159 0 
L 581 0 
L 581 4863 
L 1159 4863 
L 1159 2956 
Q 1366 3272 1645 3428 
Q 1925 3584 2291 3584 
Q 2894 3584 3203 3211 
Q 3513 2838 3513 2113 
z
" transform="scale(0.015625)"/>
       <path id="DejaVuSans-75" d="M 544 1381 
L 544 3500 
L 1119 3500 
L 1119 1403 
Q 1119 906 1312 657 
Q 1506 409 1894 409 
Q 2359 409 2629 706 
Q 2900 1003 2900 1516 
L 2900 3500 
L 3475 3500 
L 3475 0 
L 2900 0 
L 2900 538 
Q 2691 219 2414 64 
Q 2138 -91 1772 -91 
Q 1169 -91 856 284 
Q 544 659 544 1381 
z
M 1991 3584 
L 1991 3584 
z
" transform="scale(0.015625)"/>
       <path id="DejaVuSans-6e" d="M 3513 2113 
L 3513 0 
L 2938 0 
L 2938 2094 
Q 2938 2591 2744 2837 
Q 2550 3084 2163 3084 
Q 1697 3084 1428 2787 
Q 1159 2491 1159 1978 
L 1159 0 
L 581 0 
L 581 3500 
L 1159 3500 
L 1159 2956 
Q 1366 3272 1645 3428 
Q 1925 3584 2291 3584 
Q 2894 3584 3203 3211 
Q 3513 2838 3513 2113 
z
" transform="scale(0.015625)"/>
      </defs>
      <use xlink:href="#DejaVuSans-72"/>
      <use xlink:href="#DejaVuSans-65" x="38.863281"/>
      <use xlink:href="#DejaVuSans-73" x="100.386719"/>
      <use xlink:href="#DejaVuSans-65" x="152.486328"/>
      <use xlink:href="#DejaVuSans-61" x="214.009766"/>
      <use xlink:href="#DejaVuSans-72" x="275.289062"/>
      <use xlink:href="#DejaVuSans-63" x="314.152344"/>
      <use xlink:href="#DejaVuSans-68" x="369.132812"/>
      <use xlink:href="#DejaVuSans-20" x="432.511719"/>
      <use xlink:href="#DejaVuSans-75" x="464.298828"/>
      <use xlink:href="#DejaVuSans-6e" x="527.677734"/>
      <use xlink:href="#DejaVuSans-69" x="591.056641"/>
      <use xlink:href="#DejaVuSans-74" x="618.839844"/>
      <use xlink:href="#DejaVuSans-73" x="658.048828"/>
      <use xlink:href="#DejaVuSans-20" x="710.148438"/>
     </g>
     <!--  completed -->
     <g transform="translate(52.311 183.405) rotate(-90) scale(0.24 -0.24)">
      <defs>
       <path id="DejaVuSans-6f" d="M 1959 3097 
Q 1497 3097 1228 2736 
Q 959 2375 959 1747 
Q 959 1119 1226 758 
Q 1494 397 1959 397 
Q 2419 397 2687 759 
Q 2956 1122 2956 1747 
Q 2956 2369 2687 2733 
Q 2419 3097 1959 3097 
z
M 1959 3584 
Q 2709 3584 3137 3096 
Q 3566 2609 3566 1747 
Q 3566 888 3137 398 
Q 2709 -91 1959 -91 
Q 1206 -91 779 398 
Q 353 888 353 1747 
Q 353 2609 779 3096 
Q 1206 3584 1959 3584 
z
" transform="scale(0.015625)"/>
       <path id="DejaVuSans-70" d="M 1159 525 
L 1159 -1331 
L 581 -1331 
L 581 3500 
L 1159 3500 
L 1159 2969 
Q 1341 3281 1617 3432 
Q 1894 3584 2278 3584 
Q 2916 3584 3314 3078 
Q 3713 2572 3713 1747 
Q 3713 922 3314 415 
Q 2916 -91 2278 -91 
Q 1894 -91 1617 61 
Q 1341 213 1159 525 
z
M 3116 1747 
Q 3116 2381 2855 2742 
Q 2594 3103 2138 3103 
Q 1681 3103 1420 2742 
Q 1159 2381 1159 1747 
Q 1159 1113 1420 752 
Q 1681 391 2138 391 
Q 2594 391 2855 752 
Q 3116 1113 3116 1747 
z
" transform="scale(0.015625)"/>
       <path id="DejaVuSans-6c" d="M 603 4863 
L 1178 4863 
L 1178 0 
L 603 0 
L 603 4863 
z
" transform="scale(0.015625)"/>
       <path id="DejaVuSans-64" d="M 2906 2969 
L 2906 4863 
L 3481 4863 
L 3481 0 
L 2906 0 
L 2906 525 
Q 2725 213 2448 61 
Q 2172 -91 1784 -91 
Q 1150 -91 751 415 
Q 353 922 353 1747 
Q 353 2572 751 3078 
Q 1150 3584 1784 3584 
Q 2172 3584 2448 3432 
Q 2725 3281 2906 2969 
z
M 947 1747 
Q 947 1113 1208 752 
Q 1469 391 1925 391 
Q 2381 391 2643 752 
Q 2906 1113 2906 1747 
Q 2906 2381 2643 2742 
Q 2381 3103 1925 3103 
Q 1469 3103 1208 2742 
Q 947 2381 947 1747 
z
" transform="scale(0.015625)"/>
      </defs>
      <use xlink:href="#DejaVuSans-20"/>
      <use xlink:href="#DejaVuSans-63" x="31.787109"/>
      <use xlink:href="#DejaVuSans-6f" x="86.767578"/>
      <use xlink:href="#DejaVuSans-6d" x="147.949219"/>
      <use xlink:href="#DejaVuSans-70" x="245.361328"/>
      <use xlink:href="#DejaVuSans-6c" x="308.837891"/>
      <use xlink:href="#DejaVuSans-65" x="336.621094"/>
      <use xlink:href="#DejaVuSans-74" x="398.144531"/>
      <use xlink:href="#DejaVuSans-65" x="437.353516"/>
      <use xlink:href="#DejaVuSans-64" x="498.876953"/>
     </g>
    </g>
   </g>
   <g id="line2d_8">
    <path d="M 111.524068 198.268794 
L 127.376341 73.992247 
L 143.228614 67.123683 
L 159.080886 64.858868 
L 174.933159 62.73406 
L 190.785432 60.724552 
L 206.637705 58.566802 
L 222.489977 56.384344 
L 238.34225 54.070116 
L 254.194523 52.044136 
L 270.046795 50.034628 
L 285.899068 48.255719 
L 301.751341 46.312097 
L 317.603614 44.714373 
L 333.455886 42.927228 
L 349.308159 41.304798 
L 365.160432 39.690603 
" clip-path="url(#pc586758a24)" style="fill: none; stroke: #dc143c; stroke-width: 3; stroke-linecap: square"/>
   </g>
   <g id="line2d_9">
    <path d="M 111.524068 198.268794 
L 127.376341 91.204837 
L 143.228614 74.733459 
L 159.080886 74.733459 
L 174.933159 74.733459 
L 190.785432 74.733459 
L 206.637705 50.026392 
L 222.489977 50.026392 
L 238.34225 50.026392 
L 254.194523 50.026392 
L 270.046795 50.026392 
L 285.899068 33.555014 
L 301.751341 33.555014 
L 317.603614 33.555014 
L 333.455886 33.555014 
L 349.308159 33.555014 
L 365.160432 33.555014 
" clip-path="url(#pc586758a24)" style="fill: none; stroke-dasharray: 5.55,2.4; stroke-dashoffset: 0; stroke: #dc143c; stroke-width: 1.5"/>
   </g>
   <g id="line2d_10">
    <path d="M 111.524068 198.268794 
L 127.376341 74.733459 
L 143.228614 74.733459 
L 159.080886 74.733459 
L 174.933159 74.733459 
L 190.785432 58.262081 
L 206.637705 58.262081 
L 222.489977 58.262081 
L 238.34225 58.262081 
L 254.194523 58.262081 
L 270.046795 50.026392 
L 285.899068 50.026392 
L 301.751341 50.026392 
L 317.603614 41.790703 
L 333.455886 41.790703 
L 349.308159 41.790703 
L 365.160432 41.790703 
" clip-path="url(#pc586758a24)" style="fill: none; stroke-dasharray: 5.55,2.4; stroke-dashoffset: 0; stroke: #dc143c; stroke-width: 1.5"/>
   </g>
   <g id="line2d_11">
    <path d="M 111.524068 198.268794 
L 127.376341 58.262081 
L 143.228614 58.262081 
L 159.080886 50.026392 
L 174.933159 50.026392 
L 190.785432 41.790703 
L 206.637705 33.555014 
L 222.489977 33.555014 
L 238.34225 25.319325 
L 254.194523 25.319325 
L 270.046795 25.319325 
L 285.899068 25.319325 
L 301.751341 25.319325 
L 317.603614 17.083636 
L 333.455886 17.083636 
L 349.308159 17.083636 
L 365.160432 17.083636 
" clip-path="url(#pc586758a24)" style="fill: none; stroke-dasharray: 5.55,2.4; stroke-dashoffset: 0; stroke: #dc143c; stroke-width: 1.5"/>
   </g>
   <g id="line2d_12">
    <path d="M 111.524068 198.268794 
L 127.376341 191.268459 
L 143.228614 179.647902 
L 159.080886 162.212948 
L 174.933159 144.646223 
L 190.785432 127.054792 
L 206.637705 113.523555 
L 222.489977 101.03825 
L 238.34225 90.710696 
L 254.194523 82.442064 
L 270.046795 76.380597 
L 285.899068 71.323884 
L 301.751341 67.675474 
L 317.603614 63.870586 
L 333.455886 59.942162 
L 349.308159 55.774903 
L 365.160432 52.908884 
" clip-path="url(#pc586758a24)" style="fill: none; stroke: #4b0082; stroke-width: 3; stroke-linecap: square"/>
   </g>
   <g id="line2d_13">
    <path d="M 111.524068 198.268794 
L 127.376341 190.033105 
L 143.228614 181.797416 
L 159.080886 91.204837 
L 174.933159 91.204837 
L 190.785432 91.204837 
L 206.637705 82.969148 
L 222.489977 82.969148 
L 238.34225 82.969148 
L 254.194523 82.969148 
L 270.046795 74.733459 
L 285.899068 74.733459 
L 301.751341 66.49777 
L 317.603614 66.49777 
L 333.455886 66.49777 
L 349.308159 66.49777 
L 365.160432 66.49777 
" clip-path="url(#pc586758a24)" style="fill: none; stroke-dasharray: 5.55,2.4; stroke-dashoffset: 0; stroke: #4b0082; stroke-width: 1.5"/>
   </g>
   <g id="line2d_14">
    <path d="M 111.524068 198.268794 
L 127.376341 198.268794 
L 143.228614 173.561727 
L 159.080886 148.85466 
L 174.933159 66.49777 
L 190.785432 58.262081 
L 206.637705 50.026392 
L 222.489977 50.026392 
L 238.34225 50.026392 
L 254.194523 41.790703 
L 270.046795 33.555014 
L 285.899068 33.555014 
L 301.751341 33.555014 
L 317.603614 25.319325 
L 333.455886 25.319325 
L 349.308159 25.319325 
L 365.160432 25.319325 
" clip-path="url(#pc586758a24)" style="fill: none; stroke-dasharray: 5.55,2.4; stroke-dashoffset: 0; stroke: #4b0082; stroke-width: 1.5"/>
   </g>
   <g id="line2d_15">
    <path d="M 111.524068 198.268794 
L 127.376341 198.268794 
L 143.228614 198.268794 
L 159.080886 181.797416 
L 174.933159 181.797416 
L 190.785432 66.49777 
L 206.637705 66.49777 
L 222.489977 66.49777 
L 238.34225 66.49777 
L 254.194523 66.49777 
L 270.046795 66.49777 
L 285.899068 50.026392 
L 301.751341 50.026392 
L 317.603614 50.026392 
L 333.455886 50.026392 
L 349.308159 41.790703 
L 365.160432 41.790703 
" clip-path="url(#pc586758a24)" style="fill: none; stroke-dasharray: 5.55,2.4; stroke-dashoffset: 0; stroke: #4b0082; stroke-width: 1.5"/>
   </g>
   <g id="line2d_16">
    <path d="M 111.524068 198.268794 
L 127.376341 196.201636 
L 143.228614 193.533273 
L 159.080886 190.955503 
L 174.933159 187.611813 
L 190.785432 183.864574 
L 206.637705 179.236117 
L 222.489977 174.031162 
L 238.34225 168.381479 
L 254.194523 161.990584 
L 270.046795 156.060888 
L 285.899068 149.373509 
L 301.751341 142.257873 
L 317.603614 136.097578 
L 333.455886 129.517263 
L 349.308159 116.331925 
L 365.160432 59.464492 
" clip-path="url(#pc586758a24)" style="fill: none; stroke: #1f77b4; stroke-width: 3; stroke-linecap: square"/>
   </g>
   <g id="line2d_17">
    <path d="M 111.524068 198.268794 
L 127.376341 198.268794 
L 143.228614 198.268794 
L 159.080886 190.033105 
L 174.933159 190.033105 
L 190.785432 190.033105 
L 206.637705 190.033105 
L 222.489977 190.033105 
L 238.34225 190.033105 
L 254.194523 190.033105 
L 270.046795 190.033105 
L 285.899068 181.797416 
L 301.751341 148.85466 
L 317.603614 148.85466 
L 333.455886 140.618971 
L 349.308159 82.969148 
L 365.160432 82.969148 
" clip-path="url(#pc586758a24)" style="fill: none; stroke-dasharray: 5.55,2.4; stroke-dashoffset: 0; stroke: #1f77b4; stroke-width: 1.5"/>
   </g>
   <g id="line2d_18">
    <path d="M 111.524068 198.268794 
L 127.376341 198.268794 
L 143.228614 198.268794 
L 159.080886 198.268794 
L 174.933159 198.268794 
L 190.785432 173.561727 
L 206.637705 173.561727 
L 222.489977 165.326038 
L 238.34225 165.326038 
L 254.194523 165.326038 
L 270.046795 165.326038 
L 285.899068 74.733459 
L 301.751341 74.733459 
L 317.603614 74.733459 
L 333.455886 74.733459 
L 349.308159 74.733459 
L 365.160432 74.733459 
" clip-path="url(#pc586758a24)" style="fill: none; stroke-dasharray: 5.55,2.4; stroke-dashoffset: 0; stroke: #1f77b4; stroke-width: 1.5"/>
   </g>
   <g id="line2d_19">
    <path d="M 111.524068 198.268794 
L 127.376341 198.268794 
L 143.228614 198.268794 
L 159.080886 198.268794 
L 174.933159 198.268794 
L 190.785432 198.268794 
L 206.637705 198.268794 
L 222.489977 198.268794 
L 238.34225 198.268794 
L 254.194523 190.033105 
L 270.046795 181.797416 
L 285.899068 181.797416 
L 301.751341 173.561727 
L 317.603614 173.561727 
L 333.455886 173.561727 
L 349.308159 148.85466 
L 365.160432 50.026392 
" clip-path="url(#pc586758a24)" style="fill: none; stroke-dasharray: 5.55,2.4; stroke-dashoffset: 0; stroke: #1f77b4; stroke-width: 1.5"/>
   </g>
   <g id="line2d_20">
    <path d="M 111.524068 198.268794 
L 127.376341 196.687542 
L 143.228614 195.312182 
L 159.080886 193.533273 
L 174.933159 191.82025 
L 190.785432 190.436654 
L 206.637705 188.781281 
L 222.489977 186.648237 
L 238.34225 184.342244 
L 254.194523 182.448036 
L 270.046795 180.1091 
L 285.899068 177.127781 
L 301.751341 174.253525 
L 317.603614 170.967485 
L 333.455886 167.319075 
L 349.308159 161.965877 
L 365.160432 56.771422 
" clip-path="url(#pc586758a24)" style="fill: none; stroke: #ffa500; stroke-width: 3; stroke-linecap: square"/>
   </g>
   <g id="line2d_21">
    <path d="M 111.524068 198.268794 
L 127.376341 198.268794 
L 143.228614 190.033105 
L 159.080886 181.797416 
L 174.933159 181.797416 
L 190.785432 181.797416 
L 206.637705 181.797416 
L 222.489977 181.797416 
L 238.34225 181.797416 
L 254.194523 181.797416 
L 270.046795 181.797416 
L 285.899068 181.797416 
L 301.751341 181.797416 
L 317.603614 181.797416 
L 333.455886 181.797416 
L 349.308159 173.561727 
L 365.160432 41.790703 
" clip-path="url(#pc586758a24)" style="fill: none; stroke-dasharray: 5.55,2.4; stroke-dashoffset: 0; stroke: #ffa500; stroke-width: 1.5"/>
   </g>
   <g id="line2d_22">
    <path d="M 111.524068 198.268794 
L 127.376341 181.797416 
L 143.228614 181.797416 
L 159.080886 181.797416 
L 174.933159 181.797416 
L 190.785432 181.797416 
L 206.637705 181.797416 
L 222.489977 181.797416 
L 238.34225 181.797416 
L 254.194523 173.561727 
L 270.046795 173.561727 
L 285.899068 173.561727 
L 301.751341 173.561727 
L 317.603614 173.561727 
L 333.455886 173.561727 
L 349.308159 173.561727 
L 365.160432 58.262081 
" clip-path="url(#pc586758a24)" style="fill: none; stroke-dasharray: 5.55,2.4; stroke-dashoffset: 0; stroke: #ffa500; stroke-width: 1.5"/>
   </g>
   <g id="line2d_23">
    <path d="M 111.524068 198.268794 
L 127.376341 198.268794 
L 143.228614 198.268794 
L 159.080886 198.268794 
L 174.933159 198.268794 
L 190.785432 198.268794 
L 206.637705 198.268794 
L 222.489977 198.268794 
L 238.34225 198.268794 
L 254.194523 181.797416 
L 270.046795 181.797416 
L 285.899068 181.797416 
L 301.751341 181.797416 
L 317.603614 181.797416 
L 333.455886 181.797416 
L 349.308159 181.797416 
L 365.160432 50.026392 
" clip-path="url(#pc586758a24)" style="fill: none; stroke-dasharray: 5.55,2.4; stroke-dashoffset: 0; stroke: #ffa500; stroke-width: 1.5"/>
   </g>
   <g id="patch_3">
    <path d="M 98.84225 224.64 
L 98.84225 7.2 
" style="fill: none; stroke: #000000; stroke-width: 0.8; stroke-linejoin: miter; stroke-linecap: square"/>
   </g>
   <g id="patch_4">
    <path d="M 98.84225 224.64 
L 377.84225 224.64 
" style="fill: none; stroke: #000000; stroke-width: 0.8; stroke-linejoin: miter; stroke-linecap: square"/>
   </g>
  </g>
 </g>
 <defs>
  <clipPath id="pc586758a24">
   <rect x="98.84225" y="7.2" width="279" height="217.44"/>
  </clipPath>
 </defs>
</svg>
