<?xml version="1.0" encoding="utf-8" standalone="no"?>
<!DOCTYPE svg PUBLIC "-//W3C//DTD SVG 1.1//EN"
  "http://www.w3.org/Graphics/SVG/1.1/DTD/svg11.dtd">
<svg xmlns:xlink="http://www.w3.org/1999/xlink" width="355.51pt" height="273.81pt" viewBox="0 0 355.51 273.81" xmlns="http://www.w3.org/2000/svg" version="1.1">
 <metadata>
  <rdf:RDF xmlns:dc="http://purl.org/dc/elements/1.1/" xmlns:cc="http://creativecommons.org/ns#" xmlns:rdf="http://www.w3.org/1999/02/22-rdf-syntax-ns#">
   <cc:Work>
    <dc:type rdf:resource="http://purl.org/dc/dcmitype/StillImage"/>
    <dc:date>2024-01-27T15:11:10.990469</dc:date>
    <dc:format>image/svg+xml</dc:format>
    <dc:creator>
     <cc:Agent>
      <dc:title>Matplotlib v3.8.0, https://matplotlib.org/</dc:title>
     </cc:Agent>
    </dc:creator>
   </cc:Work>
  </rdf:RDF>
 </metadata>
 <defs>
  <style type="text/css">*{stroke-linejoin: round; stroke-linecap: butt}</style>
 </defs>
 <g id="figure_1">
  <g id="patch_1">
   <path d="M 0 273.81 
L 355.51 273.81 
L 355.51 0 
L 0 0 
z
" style="fill: #ffffff"/>
  </g>
  <g id="axes_1">
   <g id="patch_2">
    <path d="M 69.31 224.64 
L 348.31 224.64 
L 348.31 7.2 
L 69.31 7.2 
z
" style="fill: #ffffff"/>
   </g>
   <g id="PolyCollection_1">
    <defs>
     <path id="m666bce72c3" d="M 81.991818 -76.854764 
L 81.991818 -76.854764 
L 97.844091 -182.462512 
L 113.696364 -198.056933 
L 129.548636 -199.677615 
L 145.400909 -201.172081 
L 161.253182 -202.685692 
L 177.105455 -204.127177 
L 192.957727 -205.892956 
L 208.81 -207.451842 
L 224.662273 -209.006017 
L 240.514545 -210.590096 
L 256.366818 -212.275944 
L 272.219091 -214.178466 
L 288.071364 -215.784638 
L 303.923636 -217.775079 
L 319.775909 -219.423479 
L 335.628182 -221.37853 
L 335.628182 -256.726364 
L 335.628182 -256.726364 
L 319.775909 -255.144577 
L 303.923636 -253.171929 
L 288.071364 -251.322375 
L 272.219091 -249.678026 
L 256.366818 -247.740553 
L 240.514545 -245.7043 
L 224.662273 -243.599963 
L 208.81 -241.549932 
L 192.957727 -239.235139 
L 177.105455 -236.908292 
L 161.253182 -234.560308 
L 145.400909 -231.863398 
L 129.548636 -229.248395 
L 113.696364 -226.793293 
L 97.844091 -227.415102 
L 81.991818 -76.854764 
z
" style="stroke: #dc143c; stroke-opacity: 0.1"/>
    </defs>
    <g clip-path="url(#p0e94a67a02)">
     <use xlink:href="#m666bce72c3" x="0" y="273.81" style="fill: #dc143c; fill-opacity: 0.1; stroke: #dc143c; stroke-opacity: 0.1"/>
    </g>
   </g>
   <g id="PolyCollection_2">
    <defs>
     <path id="m4840f19e05" d="M 81.991818 -76.854764 
L 81.991818 -76.854764 
L 97.844091 -64.081003 
L 113.696364 -59.053636 
L 129.548636 -63.397897 
L 145.400909 -73.746198 
L 161.253182 -87.64707 
L 177.105455 -103.586361 
L 192.957727 -121.417375 
L 208.81 -136.734997 
L 224.662273 -150.037197 
L 240.514545 -160.33849 
L 256.366818 -170.923073 
L 272.219091 -180.363517 
L 288.071364 -187.489677 
L 303.923636 -194.376984 
L 319.775909 -203.377988 
L 335.628182 -208.638001 
L 335.628182 -244.170083 
L 335.628182 -244.170083 
L 319.775909 -243.973261 
L 303.923636 -244.957434 
L 288.071364 -244.63633 
L 272.219091 -244.031974 
L 256.366818 -243.013483 
L 240.514545 -242.094924 
L 224.662273 -240.101496 
L 208.81 -236.645823 
L 192.957727 -230.725578 
L 177.105455 -220.413471 
L 161.253182 -206.592801 
L 145.400909 -188.173715 
L 129.548636 -163.810482 
L 113.696364 -137.0811 
L 97.844091 -104.668505 
L 81.991818 -76.854764 
z
" style="stroke: #4b0082; stroke-opacity: 0.1"/>
    </defs>
    <g clip-path="url(#p0e94a67a02)">
     <use xlink:href="#m4840f19e05" x="0" y="273.81" style="fill: #4b0082; fill-opacity: 0.1; stroke: #4b0082; stroke-opacity: 0.1"/>
    </g>
   </g>
   <g id="PolyCollection_3">
    <defs>
     <path id="m85298fb573" d="M 81.991818 -76.854764 
L 81.991818 -76.854764 
L 97.844091 -74.21126 
L 113.696364 -73.018981 
L 129.548636 -71.524374 
L 145.400909 -70.52543 
L 161.253182 -69.052594 
L 177.105455 -67.864753 
L 192.957727 -67.562375 
L 208.81 -68.049594 
L 224.662273 -69.594912 
L 240.514545 -72.059589 
L 256.366818 -75.743099 
L 272.219091 -80.332608 
L 288.071364 -85.195295 
L 303.923636 -92.246795 
L 319.775909 -106.45976 
L 335.628182 -204.875175 
L 335.628182 -234.10556 
L 335.628182 -234.10556 
L 319.775909 -220.891646 
L 303.923636 -206.910964 
L 288.071364 -196.581434 
L 272.219091 -188.57677 
L 256.366818 -178.05893 
L 240.514545 -167.712985 
L 224.662273 -156.165048 
L 208.81 -145.550383 
L 192.957727 -134.399722 
L 177.105455 -123.63841 
L 161.253182 -112.412687 
L 145.400909 -103.512493 
L 129.548636 -96.21461 
L 113.696364 -89.448431 
L 97.844091 -84.096157 
L 81.991818 -76.854764 
z
" style="stroke: #1f77b4; stroke-opacity: 0.1"/>
    </defs>
    <g clip-path="url(#p0e94a67a02)">
     <use xlink:href="#m85298fb573" x="0" y="273.81" style="fill: #1f77b4; fill-opacity: 0.1; stroke: #1f77b4; stroke-opacity: 0.1"/>
    </g>
   </g>
   <g id="PolyCollection_4">
    <defs>
     <path id="mc680be4c69" d="M 81.991818 -76.854764 
L 81.991818 -76.854764 
L 97.844091 -74.286629 
L 113.696364 -74.313646 
L 129.548636 -74.587083 
L 145.400909 -74.832214 
L 161.253182 -75.345406 
L 177.105455 -75.62792 
L 192.957727 -73.876449 
L 208.81 -73.664488 
L 224.662273 -73.767725 
L 240.514545 -73.843054 
L 256.366818 -74.8258 
L 272.219091 -74.023277 
L 288.071364 -73.384097 
L 303.923636 -74.665719 
L 319.775909 -76.681176 
L 335.628182 -205.557591 
L 335.628182 -237.178928 
L 335.628182 -237.178928 
L 319.775909 -153.508252 
L 303.923636 -141.679517 
L 288.071364 -135.904306 
L 272.219091 -127.4504 
L 256.366818 -120.332096 
L 240.514545 -116.868531 
L 224.662273 -112.548076 
L 208.81 -108.221845 
L 192.957727 -103.597258 
L 177.105455 -97.753162 
L 161.253182 -94.397785 
L 145.400909 -91.475192 
L 129.548636 -88.503486 
L 113.696364 -85.593769 
L 97.844091 -82.572369 
L 81.991818 -76.854764 
z
" style="stroke: #ffa500; stroke-opacity: 0.1"/>
    </defs>
    <g clip-path="url(#p0e94a67a02)">
     <use xlink:href="#mc680be4c69" x="0" y="273.81" style="fill: #ffa500; fill-opacity: 0.1; stroke: #ffa500; stroke-opacity: 0.1"/>
    </g>
   </g>
   <g id="matplotlib.axis_1">
    <g id="xtick_1">
     <g id="line2d_1">
      <defs>
       <path id="mb7194d7330" d="M 0 0 
L 0 3.5 
" style="stroke: #000000; stroke-width: 0.8"/>
      </defs>
      <g>
       <use xlink:href="#mb7194d7330" x="81.991818" y="224.64" style="stroke: #000000; stroke-width: 0.8"/>
      </g>
     </g>
     <g id="text_1">
      <!-- 0 -->
      <g transform="translate(76.901818 243.7975) scale(0.16 -0.16)">
       <defs>
        <path id="DejaVuSans-30" d="M 2034 4250 
Q 1547 4250 1301 3770 
Q 1056 3291 1056 2328 
Q 1056 1369 1301 889 
Q 1547 409 2034 409 
Q 2525 409 2770 889 
Q 3016 1369 3016 2328 
Q 3016 3291 2770 3770 
Q 2525 4250 2034 4250 
z
M 2034 4750 
Q 2819 4750 3233 4129 
Q 3647 3509 3647 2328 
Q 3647 1150 3233 529 
Q 2819 -91 2034 -91 
Q 1250 -91 836 529 
Q 422 1150 422 2328 
Q 422 3509 836 4129 
Q 1250 4750 2034 4750 
z
" transform="scale(0.015625)"/>
       </defs>
       <use xlink:href="#DejaVuSans-30"/>
      </g>
     </g>
    </g>
    <g id="xtick_2">
     <g id="line2d_2">
      <g>
       <use xlink:href="#mb7194d7330" x="161.253182" y="224.64" style="stroke: #000000; stroke-width: 0.8"/>
      </g>
     </g>
     <g id="text_2">
      <!-- 5 -->
      <g transform="translate(156.163182 243.7975) scale(0.16 -0.16)">
       <defs>
        <path id="DejaVuSans-35" d="M 691 4666 
L 3169 4666 
L 3169 4134 
L 1269 4134 
L 1269 2991 
Q 1406 3038 1543 3061 
Q 1681 3084 1819 3084 
Q 2600 3084 3056 2656 
Q 3513 2228 3513 1497 
Q 3513 744 3044 326 
Q 2575 -91 1722 -91 
Q 1428 -91 1123 -41 
Q 819 9 494 109 
L 494 744 
Q 775 591 1075 516 
Q 1375 441 1709 441 
Q 2250 441 2565 725 
Q 2881 1009 2881 1497 
Q 2881 1984 2565 2268 
Q 2250 2553 1709 2553 
Q 1456 2553 1204 2497 
Q 953 2441 691 2322 
L 691 4666 
z
" transform="scale(0.015625)"/>
       </defs>
       <use xlink:href="#DejaVuSans-35"/>
      </g>
     </g>
    </g>
    <g id="xtick_3">
     <g id="line2d_3">
      <g>
       <use xlink:href="#mb7194d7330" x="240.514545" y="224.64" style="stroke: #000000; stroke-width: 0.8"/>
      </g>
     </g>
     <g id="text_3">
      <!-- 10 -->
      <g transform="translate(230.334545 243.7975) scale(0.16 -0.16)">
       <defs>
        <path id="DejaVuSans-31" d="M 794 531 
L 1825 531 
L 1825 4091 
L 703 3866 
L 703 4441 
L 1819 4666 
L 2450 4666 
L 2450 531 
L 3481 531 
L 3481 0 
L 794 0 
L 794 531 
z
" transform="scale(0.015625)"/>
       </defs>
       <use xlink:href="#DejaVuSans-31"/>
       <use xlink:href="#DejaVuSans-30" x="63.623047"/>
      </g>
     </g>
    </g>
    <g id="xtick_4">
     <g id="line2d_4">
      <g>
       <use xlink:href="#mb7194d7330" x="319.775909" y="224.64" style="stroke: #000000; stroke-width: 0.8"/>
      </g>
     </g>
     <g id="text_4">
      <!-- 15 -->
      <g transform="translate(309.595909 243.7975) scale(0.16 -0.16)">
       <use xlink:href="#DejaVuSans-31"/>
       <use xlink:href="#DejaVuSans-35" x="63.623047"/>
      </g>
     </g>
    </g>
    <g id="text_5">
     <!-- time (weeks) -->
     <g transform="translate(156.76375 263.2825) scale(0.16 -0.16)">
      <defs>
       <path id="DejaVuSans-74" d="M 1172 4494 
L 1172 3500 
L 2356 3500 
L 2356 3053 
L 1172 3053 
L 1172 1153 
Q 1172 725 1289 603 
Q 1406 481 1766 481 
L 2356 481 
L 2356 0 
L 1766 0 
Q 1100 0 847 248 
Q 594 497 594 1153 
L 594 3053 
L 172 3053 
L 172 3500 
L 594 3500 
L 594 4494 
L 1172 4494 
z
" transform="scale(0.015625)"/>
       <path id="DejaVuSans-69" d="M 603 3500 
L 1178 3500 
L 1178 0 
L 603 0 
L 603 3500 
z
M 603 4863 
L 1178 4863 
L 1178 4134 
L 603 4134 
L 603 4863 
z
" transform="scale(0.015625)"/>
       <path id="DejaVuSans-6d" d="M 3328 2828 
Q 3544 3216 3844 3400 
Q 4144 3584 4550 3584 
Q 5097 3584 5394 3201 
Q 5691 2819 5691 2113 
L 5691 0 
L 5113 0 
L 5113 2094 
Q 5113 2597 4934 2840 
Q 4756 3084 4391 3084 
Q 3944 3084 3684 2787 
Q 3425 2491 3425 1978 
L 3425 0 
L 2847 0 
L 2847 2094 
Q 2847 2600 2669 2842 
Q 2491 3084 2119 3084 
Q 1678 3084 1418 2786 
Q 1159 2488 1159 1978 
L 1159 0 
L 581 0 
L 581 3500 
L 1159 3500 
L 1159 2956 
Q 1356 3278 1631 3431 
Q 1906 3584 2284 3584 
Q 2666 3584 2933 3390 
Q 3200 3197 3328 2828 
z
" transform="scale(0.015625)"/>
       <path id="DejaVuSans-65" d="M 3597 1894 
L 3597 1613 
L 953 1613 
Q 991 1019 1311 708 
Q 1631 397 2203 397 
Q 2534 397 2845 478 
Q 3156 559 3463 722 
L 3463 178 
Q 3153 47 2828 -22 
Q 2503 -91 2169 -91 
Q 1331 -91 842 396 
Q 353 884 353 1716 
Q 353 2575 817 3079 
Q 1281 3584 2069 3584 
Q 2775 3584 3186 3129 
Q 3597 2675 3597 1894 
z
M 3022 2063 
Q 3016 2534 2758 2815 
Q 2500 3097 2075 3097 
Q 1594 3097 1305 2825 
Q 1016 2553 972 2059 
L 3022 2063 
z
" transform="scale(0.015625)"/>
       <path id="DejaVuSans-20" transform="scale(0.015625)"/>
       <path id="DejaVuSans-28" d="M 1984 4856 
Q 1566 4138 1362 3434 
Q 1159 2731 1159 2009 
Q 1159 1288 1364 580 
Q 1569 -128 1984 -844 
L 1484 -844 
Q 1016 -109 783 600 
Q 550 1309 550 2009 
Q 550 2706 781 3412 
Q 1013 4119 1484 4856 
L 1984 4856 
z
" transform="scale(0.015625)"/>
       <path id="DejaVuSans-77" d="M 269 3500 
L 844 3500 
L 1563 769 
L 2278 3500 
L 2956 3500 
L 3675 769 
L 4391 3500 
L 4966 3500 
L 4050 0 
L 3372 0 
L 2619 2869 
L 1863 0 
L 1184 0 
L 269 3500 
z
" transform="scale(0.015625)"/>
       <path id="DejaVuSans-6b" d="M 581 4863 
L 1159 4863 
L 1159 1991 
L 2875 3500 
L 3609 3500 
L 1753 1863 
L 3688 0 
L 2938 0 
L 1159 1709 
L 1159 0 
L 581 0 
L 581 4863 
z
" transform="scale(0.015625)"/>
       <path id="DejaVuSans-73" d="M 2834 3397 
L 2834 2853 
Q 2591 2978 2328 3040 
Q 2066 3103 1784 3103 
Q 1356 3103 1142 2972 
Q 928 2841 928 2578 
Q 928 2378 1081 2264 
Q 1234 2150 1697 2047 
L 1894 2003 
Q 2506 1872 2764 1633 
Q 3022 1394 3022 966 
Q 3022 478 2636 193 
Q 2250 -91 1575 -91 
Q 1294 -91 989 -36 
Q 684 19 347 128 
L 347 722 
Q 666 556 975 473 
Q 1284 391 1588 391 
Q 1994 391 2212 530 
Q 2431 669 2431 922 
Q 2431 1156 2273 1281 
Q 2116 1406 1581 1522 
L 1381 1569 
Q 847 1681 609 1914 
Q 372 2147 372 2553 
Q 372 3047 722 3315 
Q 1072 3584 1716 3584 
Q 2034 3584 2315 3537 
Q 2597 3491 2834 3397 
z
" transform="scale(0.015625)"/>
       <path id="DejaVuSans-29" d="M 513 4856 
L 1013 4856 
Q 1481 4119 1714 3412 
Q 1947 2706 1947 2009 
Q 1947 1309 1714 600 
Q 1481 -109 1013 -844 
L 513 -844 
Q 928 -128 1133 580 
Q 1338 1288 1338 2009 
Q 1338 2731 1133 3434 
Q 928 4138 513 4856 
z
" transform="scale(0.015625)"/>
      </defs>
      <use xlink:href="#DejaVuSans-74"/>
      <use xlink:href="#DejaVuSans-69" x="39.208984"/>
      <use xlink:href="#DejaVuSans-6d" x="66.992188"/>
      <use xlink:href="#DejaVuSans-65" x="164.404297"/>
      <use xlink:href="#DejaVuSans-20" x="225.927734"/>
      <use xlink:href="#DejaVuSans-28" x="257.714844"/>
      <use xlink:href="#DejaVuSans-77" x="296.728516"/>
      <use xlink:href="#DejaVuSans-65" x="378.515625"/>
      <use xlink:href="#DejaVuSans-65" x="440.039062"/>
      <use xlink:href="#DejaVuSans-6b" x="501.5625"/>
      <use xlink:href="#DejaVuSans-73" x="559.472656"/>
      <use xlink:href="#DejaVuSans-29" x="611.572266"/>
     </g>
    </g>
   </g>
   <g id="matplotlib.axis_2">
    <g id="ytick_1">
     <g id="line2d_5">
      <defs>
       <path id="m66a4c15b13" d="M 0 0 
L -3.5 0 
" style="stroke: #000000; stroke-width: 0.8"/>
      </defs>
      <g>
       <use xlink:href="#m66a4c15b13" x="69.31" y="196.955236" style="stroke: #000000; stroke-width: 0.8"/>
      </g>
     </g>
     <g id="text_6">
      <!-- 0.0 -->
      <g transform="translate(36.865 203.033986) scale(0.16 -0.16)">
       <defs>
        <path id="DejaVuSans-2e" d="M 684 794 
L 1344 794 
L 1344 0 
L 684 0 
L 684 794 
z
" transform="scale(0.015625)"/>
       </defs>
       <use xlink:href="#DejaVuSans-30"/>
       <use xlink:href="#DejaVuSans-2e" x="63.623047"/>
       <use xlink:href="#DejaVuSans-30" x="95.410156"/>
      </g>
     </g>
    </g>
    <g id="ytick_2">
     <g id="line2d_6">
      <g>
       <use xlink:href="#m66a4c15b13" x="69.31" y="154.850028" style="stroke: #000000; stroke-width: 0.8"/>
      </g>
     </g>
     <g id="text_7">
      <!-- 2.5 -->
      <g transform="translate(36.865 160.928778) scale(0.16 -0.16)">
       <defs>
        <path id="DejaVuSans-32" d="M 1228 531 
L 3431 531 
L 3431 0 
L 469 0 
L 469 531 
Q 828 903 1448 1529 
Q 2069 2156 2228 2338 
Q 2531 2678 2651 2914 
Q 2772 3150 2772 3378 
Q 2772 3750 2511 3984 
Q 2250 4219 1831 4219 
Q 1534 4219 1204 4116 
Q 875 4013 500 3803 
L 500 4441 
Q 881 4594 1212 4672 
Q 1544 4750 1819 4750 
Q 2544 4750 2975 4387 
Q 3406 4025 3406 3419 
Q 3406 3131 3298 2873 
Q 3191 2616 2906 2266 
Q 2828 2175 2409 1742 
Q 1991 1309 1228 531 
z
" transform="scale(0.015625)"/>
       </defs>
       <use xlink:href="#DejaVuSans-32"/>
       <use xlink:href="#DejaVuSans-2e" x="63.623047"/>
       <use xlink:href="#DejaVuSans-35" x="95.410156"/>
      </g>
     </g>
    </g>
    <g id="ytick_3">
     <g id="line2d_7">
      <g>
       <use xlink:href="#m66a4c15b13" x="69.31" y="112.74482" style="stroke: #000000; stroke-width: 0.8"/>
      </g>
     </g>
     <g id="text_8">
      <!-- 5.0 -->
      <g transform="translate(36.865 118.82357) scale(0.16 -0.16)">
       <use xlink:href="#DejaVuSans-35"/>
       <use xlink:href="#DejaVuSans-2e" x="63.623047"/>
       <use xlink:href="#DejaVuSans-30" x="95.410156"/>
      </g>
     </g>
    </g>
    <g id="ytick_4">
     <g id="line2d_8">
      <g>
       <use xlink:href="#m66a4c15b13" x="69.31" y="70.639612" style="stroke: #000000; stroke-width: 0.8"/>
      </g>
     </g>
     <g id="text_9">
      <!-- 7.5 -->
      <g transform="translate(36.865 76.718362) scale(0.16 -0.16)">
       <defs>
        <path id="DejaVuSans-37" d="M 525 4666 
L 3525 4666 
L 3525 4397 
L 1831 0 
L 1172 0 
L 2766 4134 
L 525 4134 
L 525 4666 
z
" transform="scale(0.015625)"/>
       </defs>
       <use xlink:href="#DejaVuSans-37"/>
       <use xlink:href="#DejaVuSans-2e" x="63.623047"/>
       <use xlink:href="#DejaVuSans-35" x="95.410156"/>
      </g>
     </g>
    </g>
    <g id="ytick_5">
     <g id="line2d_9">
      <g>
       <use xlink:href="#m66a4c15b13" x="69.31" y="28.534403" style="stroke: #000000; stroke-width: 0.8"/>
      </g>
     </g>
     <g id="text_10">
      <!-- 10.0 -->
      <g transform="translate(26.685 34.613153) scale(0.16 -0.16)">
       <use xlink:href="#DejaVuSans-31"/>
       <use xlink:href="#DejaVuSans-30" x="63.623047"/>
       <use xlink:href="#DejaVuSans-2e" x="127.246094"/>
       <use xlink:href="#DejaVuSans-30" x="159.033203"/>
      </g>
     </g>
    </g>
    <g id="text_11">
     <!-- research hours completed -->
     <g transform="translate(19.3575 220.545) rotate(-90) scale(0.16 -0.16)">
      <defs>
       <path id="DejaVuSans-72" d="M 2631 2963 
Q 2534 3019 2420 3045 
Q 2306 3072 2169 3072 
Q 1681 3072 1420 2755 
Q 1159 2438 1159 1844 
L 1159 0 
L 581 0 
L 581 3500 
L 1159 3500 
L 1159 2956 
Q 1341 3275 1631 3429 
Q 1922 3584 2338 3584 
Q 2397 3584 2469 3576 
Q 2541 3569 2628 3553 
L 2631 2963 
z
" transform="scale(0.015625)"/>
       <path id="DejaVuSans-61" d="M 2194 1759 
Q 1497 1759 1228 1600 
Q 959 1441 959 1056 
Q 959 750 1161 570 
Q 1363 391 1709 391 
Q 2188 391 2477 730 
Q 2766 1069 2766 1631 
L 2766 1759 
L 2194 1759 
z
M 3341 1997 
L 3341 0 
L 2766 0 
L 2766 531 
Q 2569 213 2275 61 
Q 1981 -91 1556 -91 
Q 1019 -91 701 211 
Q 384 513 384 1019 
Q 384 1609 779 1909 
Q 1175 2209 1959 2209 
L 2766 2209 
L 2766 2266 
Q 2766 2663 2505 2880 
Q 2244 3097 1772 3097 
Q 1472 3097 1187 3025 
Q 903 2953 641 2809 
L 641 3341 
Q 956 3463 1253 3523 
Q 1550 3584 1831 3584 
Q 2591 3584 2966 3190 
Q 3341 2797 3341 1997 
z
" transform="scale(0.015625)"/>
       <path id="DejaVuSans-63" d="M 3122 3366 
L 3122 2828 
Q 2878 2963 2633 3030 
Q 2388 3097 2138 3097 
Q 1578 3097 1268 2742 
Q 959 2388 959 1747 
Q 959 1106 1268 751 
Q 1578 397 2138 397 
Q 2388 397 2633 464 
Q 2878 531 3122 666 
L 3122 134 
Q 2881 22 2623 -34 
Q 2366 -91 2075 -91 
Q 1284 -91 818 406 
Q 353 903 353 1747 
Q 353 2603 823 3093 
Q 1294 3584 2113 3584 
Q 2378 3584 2631 3529 
Q 2884 3475 3122 3366 
z
" transform="scale(0.015625)"/>
       <path id="DejaVuSans-68" d="M 3513 2113 
L 3513 0 
L 2938 0 
L 2938 2094 
Q 2938 2591 2744 2837 
Q 2550 3084 2163 3084 
Q 1697 3084 1428 2787 
Q 1159 2491 1159 1978 
L 1159 0 
L 581 0 
L 581 4863 
L 1159 4863 
L 1159 2956 
Q 1366 3272 1645 3428 
Q 1925 3584 2291 3584 
Q 2894 3584 3203 3211 
Q 3513 2838 3513 2113 
z
" transform="scale(0.015625)"/>
       <path id="DejaVuSans-6f" d="M 1959 3097 
Q 1497 3097 1228 2736 
Q 959 2375 959 1747 
Q 959 1119 1226 758 
Q 1494 397 1959 397 
Q 2419 397 2687 759 
Q 2956 1122 2956 1747 
Q 2956 2369 2687 2733 
Q 2419 3097 1959 3097 
z
M 1959 3584 
Q 2709 3584 3137 3096 
Q 3566 2609 3566 1747 
Q 3566 888 3137 398 
Q 2709 -91 1959 -91 
Q 1206 -91 779 398 
Q 353 888 353 1747 
Q 353 2609 779 3096 
Q 1206 3584 1959 3584 
z
" transform="scale(0.015625)"/>
       <path id="DejaVuSans-75" d="M 544 1381 
L 544 3500 
L 1119 3500 
L 1119 1403 
Q 1119 906 1312 657 
Q 1506 409 1894 409 
Q 2359 409 2629 706 
Q 2900 1003 2900 1516 
L 2900 3500 
L 3475 3500 
L 3475 0 
L 2900 0 
L 2900 538 
Q 2691 219 2414 64 
Q 2138 -91 1772 -91 
Q 1169 -91 856 284 
Q 544 659 544 1381 
z
M 1991 3584 
L 1991 3584 
z
" transform="scale(0.015625)"/>
       <path id="DejaVuSans-70" d="M 1159 525 
L 1159 -1331 
L 581 -1331 
L 581 3500 
L 1159 3500 
L 1159 2969 
Q 1341 3281 1617 3432 
Q 1894 3584 2278 3584 
Q 2916 3584 3314 3078 
Q 3713 2572 3713 1747 
Q 3713 922 3314 415 
Q 2916 -91 2278 -91 
Q 1894 -91 1617 61 
Q 1341 213 1159 525 
z
M 3116 1747 
Q 3116 2381 2855 2742 
Q 2594 3103 2138 3103 
Q 1681 3103 1420 2742 
Q 1159 2381 1159 1747 
Q 1159 1113 1420 752 
Q 1681 391 2138 391 
Q 2594 391 2855 752 
Q 3116 1113 3116 1747 
z
" transform="scale(0.015625)"/>
       <path id="DejaVuSans-6c" d="M 603 4863 
L 1178 4863 
L 1178 0 
L 603 0 
L 603 4863 
z
" transform="scale(0.015625)"/>
       <path id="DejaVuSans-64" d="M 2906 2969 
L 2906 4863 
L 3481 4863 
L 3481 0 
L 2906 0 
L 2906 525 
Q 2725 213 2448 61 
Q 2172 -91 1784 -91 
Q 1150 -91 751 415 
Q 353 922 353 1747 
Q 353 2572 751 3078 
Q 1150 3584 1784 3584 
Q 2172 3584 2448 3432 
Q 2725 3281 2906 2969 
z
M 947 1747 
Q 947 1113 1208 752 
Q 1469 391 1925 391 
Q 2381 391 2643 752 
Q 2906 1113 2906 1747 
Q 2906 2381 2643 2742 
Q 2381 3103 1925 3103 
Q 1469 3103 1208 2742 
Q 947 2381 947 1747 
z
" transform="scale(0.015625)"/>
      </defs>
      <use xlink:href="#DejaVuSans-72"/>
      <use xlink:href="#DejaVuSans-65" x="38.863281"/>
      <use xlink:href="#DejaVuSans-73" x="100.386719"/>
      <use xlink:href="#DejaVuSans-65" x="152.486328"/>
      <use xlink:href="#DejaVuSans-61" x="214.009766"/>
      <use xlink:href="#DejaVuSans-72" x="275.289062"/>
      <use xlink:href="#DejaVuSans-63" x="314.152344"/>
      <use xlink:href="#DejaVuSans-68" x="369.132812"/>
      <use xlink:href="#DejaVuSans-20" x="432.511719"/>
      <use xlink:href="#DejaVuSans-68" x="464.298828"/>
      <use xlink:href="#DejaVuSans-6f" x="527.677734"/>
      <use xlink:href="#DejaVuSans-75" x="588.859375"/>
      <use xlink:href="#DejaVuSans-72" x="652.238281"/>
      <use xlink:href="#DejaVuSans-73" x="693.351562"/>
      <use xlink:href="#DejaVuSans-20" x="745.451172"/>
      <use xlink:href="#DejaVuSans-63" x="777.238281"/>
      <use xlink:href="#DejaVuSans-6f" x="832.21875"/>
      <use xlink:href="#DejaVuSans-6d" x="893.400391"/>
      <use xlink:href="#DejaVuSans-70" x="990.8125"/>
      <use xlink:href="#DejaVuSans-6c" x="1054.289062"/>
      <use xlink:href="#DejaVuSans-65" x="1082.072266"/>
      <use xlink:href="#DejaVuSans-74" x="1143.595703"/>
      <use xlink:href="#DejaVuSans-65" x="1182.804688"/>
      <use xlink:href="#DejaVuSans-64" x="1244.328125"/>
     </g>
    </g>
   </g>
   <g id="line2d_10">
    <path d="M 81.991818 196.955236 
L 97.844091 68.871193 
L 113.696364 61.384887 
L 129.548636 59.346995 
L 145.400909 57.292261 
L 161.253182 55.187 
L 177.105455 53.292266 
L 192.957727 51.245953 
L 208.81 49.309113 
L 224.662273 47.50701 
L 240.514545 45.662802 
L 256.366818 43.801752 
L 272.219091 41.881754 
L 288.071364 40.256493 
L 303.923636 38.336496 
L 319.775909 36.525972 
L 335.628182 34.757553 
" clip-path="url(#p0e94a67a02)" style="fill: none; stroke: #dc143c; stroke-width: 3; stroke-linecap: square"/>
   </g>
   <g id="line2d_11">
    <path d="M 81.991818 196.955236 
L 97.844091 79.060653 
L 113.696364 79.060653 
L 129.548636 79.060653 
L 145.400909 79.060653 
L 161.253182 79.060653 
L 177.105455 79.060653 
L 192.957727 79.060653 
L 208.81 79.060653 
L 224.662273 79.060653 
L 240.514545 70.639612 
L 256.366818 70.639612 
L 272.219091 70.639612 
L 288.071364 62.21857 
L 303.923636 62.21857 
L 319.775909 62.21857 
L 335.628182 62.21857 
" clip-path="url(#p0e94a67a02)" style="fill: none; stroke-dasharray: 5.55,2.4; stroke-dashoffset: 0; stroke: #dc143c; stroke-width: 1.5"/>
   </g>
   <g id="line2d_12">
    <path d="M 81.991818 196.955236 
L 97.844091 70.639612 
L 113.696364 70.639612 
L 129.548636 70.639612 
L 145.400909 70.639612 
L 161.253182 70.639612 
L 177.105455 70.639612 
L 192.957727 70.639612 
L 208.81 70.639612 
L 224.662273 70.639612 
L 240.514545 62.21857 
L 256.366818 62.21857 
L 272.219091 62.21857 
L 288.071364 62.21857 
L 303.923636 62.21857 
L 319.775909 62.21857 
L 335.628182 62.21857 
" clip-path="url(#p0e94a67a02)" style="fill: none; stroke-dasharray: 5.55,2.4; stroke-dashoffset: 0; stroke: #dc143c; stroke-width: 1.5"/>
   </g>
   <g id="line2d_13">
    <path d="M 81.991818 196.955236 
L 97.844091 95.902736 
L 113.696364 79.060653 
L 129.548636 70.639612 
L 145.400909 62.21857 
L 161.253182 62.21857 
L 177.105455 62.21857 
L 192.957727 62.21857 
L 208.81 62.21857 
L 224.662273 62.21857 
L 240.514545 62.21857 
L 256.366818 62.21857 
L 272.219091 53.797528 
L 288.071364 45.376487 
L 303.923636 45.376487 
L 319.775909 45.376487 
L 335.628182 45.376487 
" clip-path="url(#p0e94a67a02)" style="fill: none; stroke-dasharray: 5.55,2.4; stroke-dashoffset: 0; stroke: #dc143c; stroke-width: 1.5"/>
   </g>
   <g id="line2d_14">
    <path d="M 81.991818 196.955236 
L 97.844091 189.435246 
L 113.696364 175.742632 
L 129.548636 160.20581 
L 145.400909 142.850043 
L 161.253182 126.690065 
L 177.105455 111.810084 
L 192.957727 97.738523 
L 208.81 87.11959 
L 224.662273 78.740654 
L 240.514545 72.593293 
L 256.366818 66.841722 
L 272.219091 61.612255 
L 288.071364 57.746997 
L 303.923636 54.142791 
L 319.775909 50.134375 
L 335.628182 47.405958 
" clip-path="url(#p0e94a67a02)" style="fill: none; stroke: #4b0082; stroke-width: 3; stroke-linecap: square"/>
   </g>
   <g id="line2d_15">
    <path d="M 81.991818 196.955236 
L 97.844091 196.955236 
L 113.696364 163.271069 
L 129.548636 163.271069 
L 145.400909 163.271069 
L 161.253182 163.271069 
L 177.105455 163.271069 
L 192.957727 163.271069 
L 208.81 163.271069 
L 224.662273 138.007945 
L 240.514545 53.797528 
L 256.366818 53.797528 
L 272.219091 45.376487 
L 288.071364 45.376487 
L 303.923636 45.376487 
L 319.775909 36.955445 
L 335.628182 36.955445 
" clip-path="url(#p0e94a67a02)" style="fill: none; stroke-dasharray: 5.55,2.4; stroke-dashoffset: 0; stroke: #4b0082; stroke-width: 1.5"/>
   </g>
   <g id="line2d_16">
    <path d="M 81.991818 196.955236 
L 97.844091 196.955236 
L 113.696364 196.955236 
L 129.548636 196.955236 
L 145.400909 180.113153 
L 161.253182 70.639612 
L 177.105455 70.639612 
L 192.957727 70.639612 
L 208.81 70.639612 
L 224.662273 70.639612 
L 240.514545 53.797528 
L 256.366818 53.797528 
L 272.219091 53.797528 
L 288.071364 45.376487 
L 303.923636 36.955445 
L 319.775909 36.955445 
L 335.628182 36.955445 
" clip-path="url(#p0e94a67a02)" style="fill: none; stroke-dasharray: 5.55,2.4; stroke-dashoffset: 0; stroke: #4b0082; stroke-width: 1.5"/>
   </g>
   <g id="line2d_17">
    <path d="M 81.991818 196.955236 
L 97.844091 188.534194 
L 113.696364 188.534194 
L 129.548636 171.692111 
L 145.400909 171.692111 
L 161.253182 138.007945 
L 177.105455 87.481695 
L 192.957727 70.639612 
L 208.81 70.639612 
L 224.662273 70.639612 
L 240.514545 62.21857 
L 256.366818 53.797528 
L 272.219091 53.797528 
L 288.071364 53.797528 
L 303.923636 53.797528 
L 319.775909 53.797528 
L 335.628182 45.376487 
" clip-path="url(#p0e94a67a02)" style="fill: none; stroke-dasharray: 5.55,2.4; stroke-dashoffset: 0; stroke: #4b0082; stroke-width: 1.5"/>
   </g>
   <g id="line2d_18">
    <path d="M 81.991818 196.955236 
L 97.844091 194.656292 
L 113.696364 192.576294 
L 129.548636 189.940508 
L 145.400909 186.791039 
L 161.253182 183.077359 
L 177.105455 178.058418 
L 192.957727 172.828952 
L 208.81 167.010012 
L 224.662273 160.93002 
L 240.514545 153.923713 
L 256.366818 146.908986 
L 272.219091 139.355311 
L 288.071364 132.921635 
L 303.923636 124.23112 
L 319.775909 110.134297 
L 335.628182 54.319633 
" clip-path="url(#p0e94a67a02)" style="fill: none; stroke: #1f77b4; stroke-width: 3; stroke-linecap: square"/>
   </g>
   <g id="line2d_19">
    <path d="M 81.991818 196.955236 
L 97.844091 196.955236 
L 113.696364 196.955236 
L 129.548636 196.955236 
L 145.400909 196.955236 
L 161.253182 196.955236 
L 177.105455 188.534194 
L 192.957727 180.113153 
L 208.81 180.113153 
L 224.662273 180.113153 
L 240.514545 180.113153 
L 256.366818 171.692111 
L 272.219091 45.376487 
L 288.071364 45.376487 
L 303.923636 45.376487 
L 319.775909 45.376487 
L 335.628182 45.376487 
" clip-path="url(#p0e94a67a02)" style="fill: none; stroke-dasharray: 5.55,2.4; stroke-dashoffset: 0; stroke: #1f77b4; stroke-width: 1.5"/>
   </g>
   <g id="line2d_20">
    <path d="M 81.991818 196.955236 
L 97.844091 196.955236 
L 113.696364 196.955236 
L 129.548636 188.534194 
L 145.400909 163.271069 
L 161.253182 163.271069 
L 177.105455 79.060653 
L 192.957727 79.060653 
L 208.81 79.060653 
L 224.662273 70.639612 
L 240.514545 62.21857 
L 256.366818 62.21857 
L 272.219091 53.797528 
L 288.071364 45.376487 
L 303.923636 45.376487 
L 319.775909 36.955445 
L 335.628182 36.955445 
" clip-path="url(#p0e94a67a02)" style="fill: none; stroke-dasharray: 5.55,2.4; stroke-dashoffset: 0; stroke: #1f77b4; stroke-width: 1.5"/>
   </g>
   <g id="line2d_21">
    <path d="M 81.991818 196.955236 
L 97.844091 196.955236 
L 113.696364 196.955236 
L 129.548636 196.955236 
L 145.400909 188.534194 
L 161.253182 180.113153 
L 177.105455 171.692111 
L 192.957727 171.692111 
L 208.81 171.692111 
L 224.662273 171.692111 
L 240.514545 171.692111 
L 256.366818 171.692111 
L 272.219091 171.692111 
L 288.071364 171.692111 
L 303.923636 163.271069 
L 319.775909 146.428986 
L 335.628182 28.534403 
" clip-path="url(#p0e94a67a02)" style="fill: none; stroke-dasharray: 5.55,2.4; stroke-dashoffset: 0; stroke: #1f77b4; stroke-width: 1.5"/>
   </g>
   <g id="line2d_22">
    <path d="M 81.991818 196.955236 
L 97.844091 195.380501 
L 113.696364 193.856293 
L 129.548636 192.264716 
L 145.400909 190.656297 
L 161.253182 188.938404 
L 177.105455 187.119459 
L 192.957727 185.073146 
L 208.81 182.866833 
L 224.662273 180.652099 
L 240.514545 178.454207 
L 256.366818 176.231052 
L 272.219091 173.073162 
L 288.071364 169.165799 
L 303.923636 165.637382 
L 319.775909 158.715286 
L 335.628182 52.441741 
" clip-path="url(#p0e94a67a02)" style="fill: none; stroke: #ffa500; stroke-width: 3; stroke-linecap: square"/>
   </g>
   <g id="line2d_23">
    <path d="M 81.991818 196.955236 
L 97.844091 196.955236 
L 113.696364 196.955236 
L 129.548636 188.534194 
L 145.400909 188.534194 
L 161.253182 188.534194 
L 177.105455 188.534194 
L 192.957727 188.534194 
L 208.81 188.534194 
L 224.662273 188.534194 
L 240.514545 188.534194 
L 256.366818 188.534194 
L 272.219091 188.534194 
L 288.071364 180.113153 
L 303.923636 171.692111 
L 319.775909 171.692111 
L 335.628182 28.534403 
" clip-path="url(#p0e94a67a02)" style="fill: none; stroke-dasharray: 5.55,2.4; stroke-dashoffset: 0; stroke: #ffa500; stroke-width: 1.5"/>
   </g>
   <g id="line2d_24">
    <path d="M 81.991818 196.955236 
L 97.844091 196.955236 
L 113.696364 196.955236 
L 129.548636 196.955236 
L 145.400909 196.955236 
L 161.253182 196.955236 
L 177.105455 196.955236 
L 192.957727 196.955236 
L 208.81 188.534194 
L 224.662273 188.534194 
L 240.514545 180.113153 
L 256.366818 180.113153 
L 272.219091 180.113153 
L 288.071364 180.113153 
L 303.923636 171.692111 
L 319.775909 171.692111 
L 335.628182 28.534403 
" clip-path="url(#p0e94a67a02)" style="fill: none; stroke-dasharray: 5.55,2.4; stroke-dashoffset: 0; stroke: #ffa500; stroke-width: 1.5"/>
   </g>
   <g id="line2d_25">
    <path d="M 81.991818 196.955236 
L 97.844091 196.955236 
L 113.696364 196.955236 
L 129.548636 196.955236 
L 145.400909 196.955236 
L 161.253182 188.534194 
L 177.105455 188.534194 
L 192.957727 188.534194 
L 208.81 188.534194 
L 224.662273 188.534194 
L 240.514545 188.534194 
L 256.366818 188.534194 
L 272.219091 188.534194 
L 288.071364 188.534194 
L 303.923636 188.534194 
L 319.775909 188.534194 
L 335.628182 62.21857 
" clip-path="url(#p0e94a67a02)" style="fill: none; stroke-dasharray: 5.55,2.4; stroke-dashoffset: 0; stroke: #ffa500; stroke-width: 1.5"/>
   </g>
   <g id="patch_3">
    <path d="M 69.31 224.64 
L 69.31 7.2 
" style="fill: none; stroke: #000000; stroke-width: 0.8; stroke-linejoin: miter; stroke-linecap: square"/>
   </g>
   <g id="patch_4">
    <path d="M 69.31 224.64 
L 348.31 224.64 
" style="fill: none; stroke: #000000; stroke-width: 0.8; stroke-linejoin: miter; stroke-linecap: square"/>
   </g>
  </g>
 </g>
 <defs>
  <clipPath id="p0e94a67a02">
   <rect x="69.31" y="7.2" width="279" height="217.44"/>
  </clipPath>
 </defs>
</svg>
