<?xml version="1.0" encoding="utf-8" standalone="no"?>
<!DOCTYPE svg PUBLIC "-//W3C//DTD SVG 1.1//EN"
  "http://www.w3.org/Graphics/SVG/1.1/DTD/svg11.dtd">
<svg xmlns:xlink="http://www.w3.org/1999/xlink" width="176.8pt" height="89.7525pt" viewBox="0 0 176.8 89.7525" xmlns="http://www.w3.org/2000/svg" version="1.1">
 <metadata>
  <rdf:RDF xmlns:dc="http://purl.org/dc/elements/1.1/" xmlns:cc="http://creativecommons.org/ns#" xmlns:rdf="http://www.w3.org/1999/02/22-rdf-syntax-ns#">
   <cc:Work>
    <dc:type rdf:resource="http://purl.org/dc/dcmitype/StillImage"/>
    <dc:date>2024-01-27T15:28:40.330630</dc:date>
    <dc:format>image/svg+xml</dc:format>
    <dc:creator>
     <cc:Agent>
      <dc:title>Matplotlib v3.8.0, https://matplotlib.org/</dc:title>
     </cc:Agent>
    </dc:creator>
   </cc:Work>
  </rdf:RDF>
 </metadata>
 <defs>
  <style type="text/css">*{stroke-linejoin: round; stroke-linecap: butt}</style>
 </defs>
 <g id="figure_1">
  <g id="patch_1">
   <path d="M -0 89.7525 
L 176.8 89.7525 
L 176.8 0 
L -0 0 
z
" style="fill: #ffffff"/>
  </g>
  <g id="axes_1"/>
  <g id="legend_1">
   <g id="line2d_1">
    <path d="M 13.6 20.9575 
L 29.6 20.9575 
L 45.6 20.9575 
" style="fill: none; stroke: #4b0082; stroke-width: 2; stroke-linecap: square"/>
   </g>
   <g id="text_1">
    <!-- $\gamma$=1.0, $r$=2.0 -->
    <g transform="translate(58.4 26.5575) scale(0.16 -0.16)">
     <defs>
      <path id="DejaVuSans-Oblique-3b3" d="M 1491 2950 
L 1838 788 
L 3456 3500 
L 4066 3500 
L 1972 0 
L 1713 -1331 
L 1138 -1331 
L 1397 0 
L 988 2613 
Q 925 3006 628 3006 
L 475 3006 
L 569 3500 
L 788 3500 
Q 1403 3500 1491 2950 
z
" transform="scale(0.015625)"/>
      <path id="DejaVuSans-3d" d="M 678 2906 
L 4684 2906 
L 4684 2381 
L 678 2381 
L 678 2906 
z
M 678 1631 
L 4684 1631 
L 4684 1100 
L 678 1100 
L 678 1631 
z
" transform="scale(0.015625)"/>
      <path id="DejaVuSans-31" d="M 794 531 
L 1825 531 
L 1825 4091 
L 703 3866 
L 703 4441 
L 1819 4666 
L 2450 4666 
L 2450 531 
L 3481 531 
L 3481 0 
L 794 0 
L 794 531 
z
" transform="scale(0.015625)"/>
      <path id="DejaVuSans-2e" d="M 684 794 
L 1344 794 
L 1344 0 
L 684 0 
L 684 794 
z
" transform="scale(0.015625)"/>
      <path id="DejaVuSans-30" d="M 2034 4250 
Q 1547 4250 1301 3770 
Q 1056 3291 1056 2328 
Q 1056 1369 1301 889 
Q 1547 409 2034 409 
Q 2525 409 2770 889 
Q 3016 1369 3016 2328 
Q 3016 3291 2770 3770 
Q 2525 4250 2034 4250 
z
M 2034 4750 
Q 2819 4750 3233 4129 
Q 3647 3509 3647 2328 
Q 3647 1150 3233 529 
Q 2819 -91 2034 -91 
Q 1250 -91 836 529 
Q 422 1150 422 2328 
Q 422 3509 836 4129 
Q 1250 4750 2034 4750 
z
" transform="scale(0.015625)"/>
      <path id="DejaVuSans-2c" d="M 750 794 
L 1409 794 
L 1409 256 
L 897 -744 
L 494 -744 
L 750 256 
L 750 794 
z
" transform="scale(0.015625)"/>
      <path id="DejaVuSans-20" transform="scale(0.015625)"/>
      <path id="DejaVuSans-Oblique-72" d="M 2853 2969 
Q 2766 3016 2653 3041 
Q 2541 3066 2413 3066 
Q 1953 3066 1609 2717 
Q 1266 2369 1153 1784 
L 800 0 
L 225 0 
L 909 3500 
L 1484 3500 
L 1375 2956 
Q 1603 3259 1920 3421 
Q 2238 3584 2597 3584 
Q 2691 3584 2781 3573 
Q 2872 3563 2963 3538 
L 2853 2969 
z
" transform="scale(0.015625)"/>
      <path id="DejaVuSans-32" d="M 1228 531 
L 3431 531 
L 3431 0 
L 469 0 
L 469 531 
Q 828 903 1448 1529 
Q 2069 2156 2228 2338 
Q 2531 2678 2651 2914 
Q 2772 3150 2772 3378 
Q 2772 3750 2511 3984 
Q 2250 4219 1831 4219 
Q 1534 4219 1204 4116 
Q 875 4013 500 3803 
L 500 4441 
Q 881 4594 1212 4672 
Q 1544 4750 1819 4750 
Q 2544 4750 2975 4387 
Q 3406 4025 3406 3419 
Q 3406 3131 3298 2873 
Q 3191 2616 2906 2266 
Q 2828 2175 2409 1742 
Q 1991 1309 1228 531 
z
" transform="scale(0.015625)"/>
     </defs>
     <use xlink:href="#DejaVuSans-Oblique-3b3" transform="translate(0 0.78125)"/>
     <use xlink:href="#DejaVuSans-3d" transform="translate(59.179688 0.78125)"/>
     <use xlink:href="#DejaVuSans-31" transform="translate(142.96875 0.78125)"/>
     <use xlink:href="#DejaVuSans-2e" transform="translate(206.591797 0.78125)"/>
     <use xlink:href="#DejaVuSans-30" transform="translate(238.378906 0.78125)"/>
     <use xlink:href="#DejaVuSans-2c" transform="translate(302.001953 0.78125)"/>
     <use xlink:href="#DejaVuSans-20" transform="translate(333.789062 0.78125)"/>
     <use xlink:href="#DejaVuSans-Oblique-72" transform="translate(365.576172 0.78125)"/>
     <use xlink:href="#DejaVuSans-3d" transform="translate(406.689453 0.78125)"/>
     <use xlink:href="#DejaVuSans-32" transform="translate(490.478516 0.78125)"/>
     <use xlink:href="#DejaVuSans-2e" transform="translate(554.101562 0.78125)"/>
     <use xlink:href="#DejaVuSans-30" transform="translate(585.888672 0.78125)"/>
    </g>
   </g>
   <g id="line2d_2">
    <path d="M 13.6 44.475 
L 29.6 44.475 
L 45.6 44.475 
" style="fill: none; stroke: #1f77b4; stroke-width: 2; stroke-linecap: square"/>
   </g>
   <g id="text_2">
    <!-- $\gamma$=1.0, $r$=0.2 -->
    <g transform="translate(58.4 50.075) scale(0.16 -0.16)">
     <use xlink:href="#DejaVuSans-Oblique-3b3" transform="translate(0 0.78125)"/>
     <use xlink:href="#DejaVuSans-3d" transform="translate(59.179688 0.78125)"/>
     <use xlink:href="#DejaVuSans-31" transform="translate(142.96875 0.78125)"/>
     <use xlink:href="#DejaVuSans-2e" transform="translate(206.591797 0.78125)"/>
     <use xlink:href="#DejaVuSans-30" transform="translate(238.378906 0.78125)"/>
     <use xlink:href="#DejaVuSans-2c" transform="translate(302.001953 0.78125)"/>
     <use xlink:href="#DejaVuSans-20" transform="translate(333.789062 0.78125)"/>
     <use xlink:href="#DejaVuSans-Oblique-72" transform="translate(365.576172 0.78125)"/>
     <use xlink:href="#DejaVuSans-3d" transform="translate(406.689453 0.78125)"/>
     <use xlink:href="#DejaVuSans-30" transform="translate(490.478516 0.78125)"/>
     <use xlink:href="#DejaVuSans-2e" transform="translate(554.101562 0.78125)"/>
     <use xlink:href="#DejaVuSans-32" transform="translate(580.388672 0.78125)"/>
    </g>
   </g>
   <g id="line2d_3">
    <path d="M 13.6 67.9925 
L 29.6 67.9925 
L 45.6 67.9925 
" style="fill: none; stroke: #ffa500; stroke-width: 2; stroke-linecap: square"/>
   </g>
   <g id="text_3">
    <!-- $\gamma$=0.9, $r$=2.0 -->
    <g transform="translate(58.4 73.5925) scale(0.16 -0.16)">
     <defs>
      <path id="DejaVuSans-39" d="M 703 97 
L 703 672 
Q 941 559 1184 500 
Q 1428 441 1663 441 
Q 2288 441 2617 861 
Q 2947 1281 2994 2138 
Q 2813 1869 2534 1725 
Q 2256 1581 1919 1581 
Q 1219 1581 811 2004 
Q 403 2428 403 3163 
Q 403 3881 828 4315 
Q 1253 4750 1959 4750 
Q 2769 4750 3195 4129 
Q 3622 3509 3622 2328 
Q 3622 1225 3098 567 
Q 2575 -91 1691 -91 
Q 1453 -91 1209 -44 
Q 966 3 703 97 
z
M 1959 2075 
Q 2384 2075 2632 2365 
Q 2881 2656 2881 3163 
Q 2881 3666 2632 3958 
Q 2384 4250 1959 4250 
Q 1534 4250 1286 3958 
Q 1038 3666 1038 3163 
Q 1038 2656 1286 2365 
Q 1534 2075 1959 2075 
z
" transform="scale(0.015625)"/>
     </defs>
     <use xlink:href="#DejaVuSans-Oblique-3b3" transform="translate(0 0.78125)"/>
     <use xlink:href="#DejaVuSans-3d" transform="translate(59.179688 0.78125)"/>
     <use xlink:href="#DejaVuSans-30" transform="translate(142.96875 0.78125)"/>
     <use xlink:href="#DejaVuSans-2e" transform="translate(206.591797 0.78125)"/>
     <use xlink:href="#DejaVuSans-39" transform="translate(238.378906 0.78125)"/>
     <use xlink:href="#DejaVuSans-2c" transform="translate(302.001953 0.78125)"/>
     <use xlink:href="#DejaVuSans-20" transform="translate(333.789062 0.78125)"/>
     <use xlink:href="#DejaVuSans-Oblique-72" transform="translate(365.576172 0.78125)"/>
     <use xlink:href="#DejaVuSans-3d" transform="translate(406.689453 0.78125)"/>
     <use xlink:href="#DejaVuSans-32" transform="translate(490.478516 0.78125)"/>
     <use xlink:href="#DejaVuSans-2e" transform="translate(554.101562 0.78125)"/>
     <use xlink:href="#DejaVuSans-30" transform="translate(585.888672 0.78125)"/>
    </g>
   </g>
  </g>
 </g>
</svg>
