<?xml version="1.0" encoding="utf-8" standalone="no"?>
<!DOCTYPE svg PUBLIC "-//W3C//DTD SVG 1.1//EN"
  "http://www.w3.org/Graphics/SVG/1.1/DTD/svg11.dtd">
<svg xmlns:xlink="http://www.w3.org/1999/xlink" width="355.51pt" height="273.81pt" viewBox="0 0 355.51 273.81" xmlns="http://www.w3.org/2000/svg" version="1.1">
 <metadata>
  <rdf:RDF xmlns:dc="http://purl.org/dc/elements/1.1/" xmlns:cc="http://creativecommons.org/ns#" xmlns:rdf="http://www.w3.org/1999/02/22-rdf-syntax-ns#">
   <cc:Work>
    <dc:type rdf:resource="http://purl.org/dc/dcmitype/StillImage"/>
    <dc:date>2024-01-27T15:00:08.843629</dc:date>
    <dc:format>image/svg+xml</dc:format>
    <dc:creator>
     <cc:Agent>
      <dc:title>Matplotlib v3.8.0, https://matplotlib.org/</dc:title>
     </cc:Agent>
    </dc:creator>
   </cc:Work>
  </rdf:RDF>
 </metadata>
 <defs>
  <style type="text/css">*{stroke-linejoin: round; stroke-linecap: butt}</style>
 </defs>
 <g id="figure_1">
  <g id="patch_1">
   <path d="M 0 273.81 
L 355.51 273.81 
L 355.51 0 
L 0 0 
z
" style="fill: #ffffff"/>
  </g>
  <g id="axes_1">
   <g id="patch_2">
    <path d="M 69.31 224.64 
L 348.31 224.64 
L 348.31 7.2 
L 69.31 7.2 
z
" style="fill: #ffffff"/>
   </g>
   <g id="PolyCollection_1">
    <defs>
     <path id="mfc75d4a45d" d="M 81.991818 -74.373726 
L 81.991818 -74.373726 
L 98.900909 -186.538429 
L 115.81 -195.234477 
L 132.719091 -198.614992 
L 149.628182 -201.727014 
L 166.537273 -205.49266 
L 183.446364 -209.337694 
L 200.355455 -212.932687 
L 217.264545 -216.688313 
L 234.173636 -220.363678 
L 251.082727 -223.9983 
L 267.991818 -227.373876 
L 284.900909 -230.49479 
L 301.81 -233.458749 
L 318.719091 -236.070411 
L 335.628182 -238.701938 
L 335.628182 -256.726364 
L 335.628182 -256.726364 
L 318.719091 -256.474149 
L 301.81 -255.926655 
L 284.900909 -255.180632 
L 267.991818 -253.765322 
L 251.082727 -252.07005 
L 234.173636 -249.661774 
L 217.264545 -246.4518 
L 200.355455 -242.933269 
L 183.446364 -239.254104 
L 166.537273 -235.209351 
L 149.628182 -230.194165 
L 132.719091 -225.367796 
L 115.81 -220.518306 
L 98.900909 -216.512929 
L 81.991818 -74.373726 
z
" style="stroke: #4b0082; stroke-opacity: 0.1"/>
    </defs>
    <g clip-path="url(#p88e6b065b2)">
     <use xlink:href="#mfc75d4a45d" x="0" y="273.81" style="fill: #4b0082; fill-opacity: 0.1; stroke: #4b0082; stroke-opacity: 0.1"/>
    </g>
   </g>
   <g id="PolyCollection_2">
    <defs>
     <path id="md88874fd82" d="M 81.991818 -74.373726 
L 81.991818 -74.373726 
L 98.900909 -72.903294 
L 115.81 -72.14062 
L 132.719091 -71.094162 
L 149.628182 -69.432958 
L 166.537273 -66.653661 
L 183.446364 -62.844574 
L 200.355455 -60.329216 
L 217.264545 -59.053636 
L 234.173636 -59.513781 
L 251.082727 -60.657746 
L 267.991818 -62.341694 
L 284.900909 -64.146429 
L 301.81 -65.478567 
L 318.719091 -66.228156 
L 335.628182 -66.605807 
L 335.628182 -194.07295 
L 335.628182 -194.07295 
L 318.719091 -190.546209 
L 301.81 -184.84788 
L 284.900909 -176.977966 
L 267.991818 -168.268384 
L 251.082727 -158.514569 
L 234.173636 -147.151519 
L 217.264545 -134.618625 
L 200.355455 -121.160046 
L 183.446364 -108.081768 
L 166.537273 -95.783464 
L 149.628182 -87.674105 
L 132.719091 -82.626934 
L 115.81 -79.393368 
L 98.900909 -76.897209 
L 81.991818 -74.373726 
z
" style="stroke: #1f77b4; stroke-opacity: 0.1"/>
    </defs>
    <g clip-path="url(#p88e6b065b2)">
     <use xlink:href="#md88874fd82" x="0" y="273.81" style="fill: #1f77b4; fill-opacity: 0.1; stroke: #1f77b4; stroke-opacity: 0.1"/>
    </g>
   </g>
   <g id="PolyCollection_3">
    <defs>
     <path id="m519cf9192e" d="M 81.991818 -74.373726 
L 81.991818 -74.373726 
L 98.900909 -82.417661 
L 115.81 -94.166002 
L 132.719091 -107.506441 
L 149.628182 -123.16824 
L 166.537273 -140.508521 
L 183.446364 -160.110667 
L 200.355455 -176.653681 
L 217.264545 -185.854996 
L 234.173636 -189.703295 
L 251.082727 -192.175597 
L 267.991818 -194.528912 
L 284.900909 -197.188443 
L 301.81 -199.625813 
L 318.719091 -201.985394 
L 335.628182 -204.48365 
L 335.628182 -228.733592 
L 335.628182 -228.733592 
L 318.719091 -224.864935 
L 301.81 -221.100615 
L 284.900909 -217.268277 
L 267.991818 -213.010067 
L 251.082727 -208.802059 
L 234.173636 -204.470026 
L 217.264545 -200.849759 
L 200.355455 -197.430652 
L 183.446364 -190.595917 
L 166.537273 -171.947982 
L 149.628182 -149.98513 
L 132.719091 -129.27614 
L 115.81 -110.004375 
L 98.900909 -92.558881 
L 81.991818 -74.373726 
z
" style="stroke: #ffa500; stroke-opacity: 0.1"/>
    </defs>
    <g clip-path="url(#p88e6b065b2)">
     <use xlink:href="#m519cf9192e" x="0" y="273.81" style="fill: #ffa500; fill-opacity: 0.1; stroke: #ffa500; stroke-opacity: 0.1"/>
    </g>
   </g>
   <g id="matplotlib.axis_1">
    <g id="xtick_1">
     <g id="line2d_1">
      <defs>
       <path id="m2bd0545490" d="M 0 0 
L 0 3.5 
" style="stroke: #000000; stroke-width: 0.8"/>
      </defs>
      <g>
       <use xlink:href="#m2bd0545490" x="81.991818" y="224.64" style="stroke: #000000; stroke-width: 0.8"/>
      </g>
     </g>
     <g id="text_1">
      <!-- 0 -->
      <g transform="translate(76.901818 243.7975) scale(0.16 -0.16)">
       <defs>
        <path id="DejaVuSans-30" d="M 2034 4250 
Q 1547 4250 1301 3770 
Q 1056 3291 1056 2328 
Q 1056 1369 1301 889 
Q 1547 409 2034 409 
Q 2525 409 2770 889 
Q 3016 1369 3016 2328 
Q 3016 3291 2770 3770 
Q 2525 4250 2034 4250 
z
M 2034 4750 
Q 2819 4750 3233 4129 
Q 3647 3509 3647 2328 
Q 3647 1150 3233 529 
Q 2819 -91 2034 -91 
Q 1250 -91 836 529 
Q 422 1150 422 2328 
Q 422 3509 836 4129 
Q 1250 4750 2034 4750 
z
" transform="scale(0.015625)"/>
       </defs>
       <use xlink:href="#DejaVuSans-30"/>
      </g>
     </g>
    </g>
    <g id="xtick_2">
     <g id="line2d_2">
      <g>
       <use xlink:href="#m2bd0545490" x="166.537273" y="224.64" style="stroke: #000000; stroke-width: 0.8"/>
      </g>
     </g>
     <g id="text_2">
      <!-- 5 -->
      <g transform="translate(161.447273 243.7975) scale(0.16 -0.16)">
       <defs>
        <path id="DejaVuSans-35" d="M 691 4666 
L 3169 4666 
L 3169 4134 
L 1269 4134 
L 1269 2991 
Q 1406 3038 1543 3061 
Q 1681 3084 1819 3084 
Q 2600 3084 3056 2656 
Q 3513 2228 3513 1497 
Q 3513 744 3044 326 
Q 2575 -91 1722 -91 
Q 1428 -91 1123 -41 
Q 819 9 494 109 
L 494 744 
Q 775 591 1075 516 
Q 1375 441 1709 441 
Q 2250 441 2565 725 
Q 2881 1009 2881 1497 
Q 2881 1984 2565 2268 
Q 2250 2553 1709 2553 
Q 1456 2553 1204 2497 
Q 953 2441 691 2322 
L 691 4666 
z
" transform="scale(0.015625)"/>
       </defs>
       <use xlink:href="#DejaVuSans-35"/>
      </g>
     </g>
    </g>
    <g id="xtick_3">
     <g id="line2d_3">
      <g>
       <use xlink:href="#m2bd0545490" x="251.082727" y="224.64" style="stroke: #000000; stroke-width: 0.8"/>
      </g>
     </g>
     <g id="text_3">
      <!-- 10 -->
      <g transform="translate(240.902727 243.7975) scale(0.16 -0.16)">
       <defs>
        <path id="DejaVuSans-31" d="M 794 531 
L 1825 531 
L 1825 4091 
L 703 3866 
L 703 4441 
L 1819 4666 
L 2450 4666 
L 2450 531 
L 3481 531 
L 3481 0 
L 794 0 
L 794 531 
z
" transform="scale(0.015625)"/>
       </defs>
       <use xlink:href="#DejaVuSans-31"/>
       <use xlink:href="#DejaVuSans-30" x="63.623047"/>
      </g>
     </g>
    </g>
    <g id="xtick_4">
     <g id="line2d_4">
      <g>
       <use xlink:href="#m2bd0545490" x="335.628182" y="224.64" style="stroke: #000000; stroke-width: 0.8"/>
      </g>
     </g>
     <g id="text_4">
      <!-- 15 -->
      <g transform="translate(325.448182 243.7975) scale(0.16 -0.16)">
       <use xlink:href="#DejaVuSans-31"/>
       <use xlink:href="#DejaVuSans-35" x="63.623047"/>
      </g>
     </g>
    </g>
    <g id="text_5">
     <!-- time (weeks) -->
     <g transform="translate(156.76375 263.2825) scale(0.16 -0.16)">
      <defs>
       <path id="DejaVuSans-74" d="M 1172 4494 
L 1172 3500 
L 2356 3500 
L 2356 3053 
L 1172 3053 
L 1172 1153 
Q 1172 725 1289 603 
Q 1406 481 1766 481 
L 2356 481 
L 2356 0 
L 1766 0 
Q 1100 0 847 248 
Q 594 497 594 1153 
L 594 3053 
L 172 3053 
L 172 3500 
L 594 3500 
L 594 4494 
L 1172 4494 
z
" transform="scale(0.015625)"/>
       <path id="DejaVuSans-69" d="M 603 3500 
L 1178 3500 
L 1178 0 
L 603 0 
L 603 3500 
z
M 603 4863 
L 1178 4863 
L 1178 4134 
L 603 4134 
L 603 4863 
z
" transform="scale(0.015625)"/>
       <path id="DejaVuSans-6d" d="M 3328 2828 
Q 3544 3216 3844 3400 
Q 4144 3584 4550 3584 
Q 5097 3584 5394 3201 
Q 5691 2819 5691 2113 
L 5691 0 
L 5113 0 
L 5113 2094 
Q 5113 2597 4934 2840 
Q 4756 3084 4391 3084 
Q 3944 3084 3684 2787 
Q 3425 2491 3425 1978 
L 3425 0 
L 2847 0 
L 2847 2094 
Q 2847 2600 2669 2842 
Q 2491 3084 2119 3084 
Q 1678 3084 1418 2786 
Q 1159 2488 1159 1978 
L 1159 0 
L 581 0 
L 581 3500 
L 1159 3500 
L 1159 2956 
Q 1356 3278 1631 3431 
Q 1906 3584 2284 3584 
Q 2666 3584 2933 3390 
Q 3200 3197 3328 2828 
z
" transform="scale(0.015625)"/>
       <path id="DejaVuSans-65" d="M 3597 1894 
L 3597 1613 
L 953 1613 
Q 991 1019 1311 708 
Q 1631 397 2203 397 
Q 2534 397 2845 478 
Q 3156 559 3463 722 
L 3463 178 
Q 3153 47 2828 -22 
Q 2503 -91 2169 -91 
Q 1331 -91 842 396 
Q 353 884 353 1716 
Q 353 2575 817 3079 
Q 1281 3584 2069 3584 
Q 2775 3584 3186 3129 
Q 3597 2675 3597 1894 
z
M 3022 2063 
Q 3016 2534 2758 2815 
Q 2500 3097 2075 3097 
Q 1594 3097 1305 2825 
Q 1016 2553 972 2059 
L 3022 2063 
z
" transform="scale(0.015625)"/>
       <path id="DejaVuSans-20" transform="scale(0.015625)"/>
       <path id="DejaVuSans-28" d="M 1984 4856 
Q 1566 4138 1362 3434 
Q 1159 2731 1159 2009 
Q 1159 1288 1364 580 
Q 1569 -128 1984 -844 
L 1484 -844 
Q 1016 -109 783 600 
Q 550 1309 550 2009 
Q 550 2706 781 3412 
Q 1013 4119 1484 4856 
L 1984 4856 
z
" transform="scale(0.015625)"/>
       <path id="DejaVuSans-77" d="M 269 3500 
L 844 3500 
L 1563 769 
L 2278 3500 
L 2956 3500 
L 3675 769 
L 4391 3500 
L 4966 3500 
L 4050 0 
L 3372 0 
L 2619 2869 
L 1863 0 
L 1184 0 
L 269 3500 
z
" transform="scale(0.015625)"/>
       <path id="DejaVuSans-6b" d="M 581 4863 
L 1159 4863 
L 1159 1991 
L 2875 3500 
L 3609 3500 
L 1753 1863 
L 3688 0 
L 2938 0 
L 1159 1709 
L 1159 0 
L 581 0 
L 581 4863 
z
" transform="scale(0.015625)"/>
       <path id="DejaVuSans-73" d="M 2834 3397 
L 2834 2853 
Q 2591 2978 2328 3040 
Q 2066 3103 1784 3103 
Q 1356 3103 1142 2972 
Q 928 2841 928 2578 
Q 928 2378 1081 2264 
Q 1234 2150 1697 2047 
L 1894 2003 
Q 2506 1872 2764 1633 
Q 3022 1394 3022 966 
Q 3022 478 2636 193 
Q 2250 -91 1575 -91 
Q 1294 -91 989 -36 
Q 684 19 347 128 
L 347 722 
Q 666 556 975 473 
Q 1284 391 1588 391 
Q 1994 391 2212 530 
Q 2431 669 2431 922 
Q 2431 1156 2273 1281 
Q 2116 1406 1581 1522 
L 1381 1569 
Q 847 1681 609 1914 
Q 372 2147 372 2553 
Q 372 3047 722 3315 
Q 1072 3584 1716 3584 
Q 2034 3584 2315 3537 
Q 2597 3491 2834 3397 
z
" transform="scale(0.015625)"/>
       <path id="DejaVuSans-29" d="M 513 4856 
L 1013 4856 
Q 1481 4119 1714 3412 
Q 1947 2706 1947 2009 
Q 1947 1309 1714 600 
Q 1481 -109 1013 -844 
L 513 -844 
Q 928 -128 1133 580 
Q 1338 1288 1338 2009 
Q 1338 2731 1133 3434 
Q 928 4138 513 4856 
z
" transform="scale(0.015625)"/>
      </defs>
      <use xlink:href="#DejaVuSans-74"/>
      <use xlink:href="#DejaVuSans-69" x="39.208984"/>
      <use xlink:href="#DejaVuSans-6d" x="66.992188"/>
      <use xlink:href="#DejaVuSans-65" x="164.404297"/>
      <use xlink:href="#DejaVuSans-20" x="225.927734"/>
      <use xlink:href="#DejaVuSans-28" x="257.714844"/>
      <use xlink:href="#DejaVuSans-77" x="296.728516"/>
      <use xlink:href="#DejaVuSans-65" x="378.515625"/>
      <use xlink:href="#DejaVuSans-65" x="440.039062"/>
      <use xlink:href="#DejaVuSans-6b" x="501.5625"/>
      <use xlink:href="#DejaVuSans-73" x="559.472656"/>
      <use xlink:href="#DejaVuSans-29" x="611.572266"/>
     </g>
    </g>
   </g>
   <g id="matplotlib.axis_2">
    <g id="ytick_1">
     <g id="line2d_5">
      <defs>
       <path id="mb2ace4f09d" d="M 0 0 
L -3.5 0 
" style="stroke: #000000; stroke-width: 0.8"/>
      </defs>
      <g>
       <use xlink:href="#mb2ace4f09d" x="69.31" y="199.436274" style="stroke: #000000; stroke-width: 0.8"/>
      </g>
     </g>
     <g id="text_6">
      <!-- 0.0 -->
      <g transform="translate(36.865 205.515024) scale(0.16 -0.16)">
       <defs>
        <path id="DejaVuSans-2e" d="M 684 794 
L 1344 794 
L 1344 0 
L 684 0 
L 684 794 
z
" transform="scale(0.015625)"/>
       </defs>
       <use xlink:href="#DejaVuSans-30"/>
       <use xlink:href="#DejaVuSans-2e" x="63.623047"/>
       <use xlink:href="#DejaVuSans-30" x="95.410156"/>
      </g>
     </g>
    </g>
    <g id="ytick_2">
     <g id="line2d_6">
      <g>
       <use xlink:href="#mb2ace4f09d" x="69.31" y="158.934282" style="stroke: #000000; stroke-width: 0.8"/>
      </g>
     </g>
     <g id="text_7">
      <!-- 2.5 -->
      <g transform="translate(36.865 165.013032) scale(0.16 -0.16)">
       <defs>
        <path id="DejaVuSans-32" d="M 1228 531 
L 3431 531 
L 3431 0 
L 469 0 
L 469 531 
Q 828 903 1448 1529 
Q 2069 2156 2228 2338 
Q 2531 2678 2651 2914 
Q 2772 3150 2772 3378 
Q 2772 3750 2511 3984 
Q 2250 4219 1831 4219 
Q 1534 4219 1204 4116 
Q 875 4013 500 3803 
L 500 4441 
Q 881 4594 1212 4672 
Q 1544 4750 1819 4750 
Q 2544 4750 2975 4387 
Q 3406 4025 3406 3419 
Q 3406 3131 3298 2873 
Q 3191 2616 2906 2266 
Q 2828 2175 2409 1742 
Q 1991 1309 1228 531 
z
" transform="scale(0.015625)"/>
       </defs>
       <use xlink:href="#DejaVuSans-32"/>
       <use xlink:href="#DejaVuSans-2e" x="63.623047"/>
       <use xlink:href="#DejaVuSans-35" x="95.410156"/>
      </g>
     </g>
    </g>
    <g id="ytick_3">
     <g id="line2d_7">
      <g>
       <use xlink:href="#mb2ace4f09d" x="69.31" y="118.43229" style="stroke: #000000; stroke-width: 0.8"/>
      </g>
     </g>
     <g id="text_8">
      <!-- 5.0 -->
      <g transform="translate(36.865 124.51104) scale(0.16 -0.16)">
       <use xlink:href="#DejaVuSans-35"/>
       <use xlink:href="#DejaVuSans-2e" x="63.623047"/>
       <use xlink:href="#DejaVuSans-30" x="95.410156"/>
      </g>
     </g>
    </g>
    <g id="ytick_4">
     <g id="line2d_8">
      <g>
       <use xlink:href="#mb2ace4f09d" x="69.31" y="77.930299" style="stroke: #000000; stroke-width: 0.8"/>
      </g>
     </g>
     <g id="text_9">
      <!-- 7.5 -->
      <g transform="translate(36.865 84.009049) scale(0.16 -0.16)">
       <defs>
        <path id="DejaVuSans-37" d="M 525 4666 
L 3525 4666 
L 3525 4397 
L 1831 0 
L 1172 0 
L 2766 4134 
L 525 4134 
L 525 4666 
z
" transform="scale(0.015625)"/>
       </defs>
       <use xlink:href="#DejaVuSans-37"/>
       <use xlink:href="#DejaVuSans-2e" x="63.623047"/>
       <use xlink:href="#DejaVuSans-35" x="95.410156"/>
      </g>
     </g>
    </g>
    <g id="ytick_5">
     <g id="line2d_9">
      <g>
       <use xlink:href="#mb2ace4f09d" x="69.31" y="37.428307" style="stroke: #000000; stroke-width: 0.8"/>
      </g>
     </g>
     <g id="text_10">
      <!-- 10.0 -->
      <g transform="translate(26.685 43.507057) scale(0.16 -0.16)">
       <use xlink:href="#DejaVuSans-31"/>
       <use xlink:href="#DejaVuSans-30" x="63.623047"/>
       <use xlink:href="#DejaVuSans-2e" x="127.246094"/>
       <use xlink:href="#DejaVuSans-30" x="159.033203"/>
      </g>
     </g>
    </g>
    <g id="text_11">
     <!-- research hours completed -->
     <g transform="translate(19.3575 220.545) rotate(-90) scale(0.16 -0.16)">
      <defs>
       <path id="DejaVuSans-72" d="M 2631 2963 
Q 2534 3019 2420 3045 
Q 2306 3072 2169 3072 
Q 1681 3072 1420 2755 
Q 1159 2438 1159 1844 
L 1159 0 
L 581 0 
L 581 3500 
L 1159 3500 
L 1159 2956 
Q 1341 3275 1631 3429 
Q 1922 3584 2338 3584 
Q 2397 3584 2469 3576 
Q 2541 3569 2628 3553 
L 2631 2963 
z
" transform="scale(0.015625)"/>
       <path id="DejaVuSans-61" d="M 2194 1759 
Q 1497 1759 1228 1600 
Q 959 1441 959 1056 
Q 959 750 1161 570 
Q 1363 391 1709 391 
Q 2188 391 2477 730 
Q 2766 1069 2766 1631 
L 2766 1759 
L 2194 1759 
z
M 3341 1997 
L 3341 0 
L 2766 0 
L 2766 531 
Q 2569 213 2275 61 
Q 1981 -91 1556 -91 
Q 1019 -91 701 211 
Q 384 513 384 1019 
Q 384 1609 779 1909 
Q 1175 2209 1959 2209 
L 2766 2209 
L 2766 2266 
Q 2766 2663 2505 2880 
Q 2244 3097 1772 3097 
Q 1472 3097 1187 3025 
Q 903 2953 641 2809 
L 641 3341 
Q 956 3463 1253 3523 
Q 1550 3584 1831 3584 
Q 2591 3584 2966 3190 
Q 3341 2797 3341 1997 
z
" transform="scale(0.015625)"/>
       <path id="DejaVuSans-63" d="M 3122 3366 
L 3122 2828 
Q 2878 2963 2633 3030 
Q 2388 3097 2138 3097 
Q 1578 3097 1268 2742 
Q 959 2388 959 1747 
Q 959 1106 1268 751 
Q 1578 397 2138 397 
Q 2388 397 2633 464 
Q 2878 531 3122 666 
L 3122 134 
Q 2881 22 2623 -34 
Q 2366 -91 2075 -91 
Q 1284 -91 818 406 
Q 353 903 353 1747 
Q 353 2603 823 3093 
Q 1294 3584 2113 3584 
Q 2378 3584 2631 3529 
Q 2884 3475 3122 3366 
z
" transform="scale(0.015625)"/>
       <path id="DejaVuSans-68" d="M 3513 2113 
L 3513 0 
L 2938 0 
L 2938 2094 
Q 2938 2591 2744 2837 
Q 2550 3084 2163 3084 
Q 1697 3084 1428 2787 
Q 1159 2491 1159 1978 
L 1159 0 
L 581 0 
L 581 4863 
L 1159 4863 
L 1159 2956 
Q 1366 3272 1645 3428 
Q 1925 3584 2291 3584 
Q 2894 3584 3203 3211 
Q 3513 2838 3513 2113 
z
" transform="scale(0.015625)"/>
       <path id="DejaVuSans-6f" d="M 1959 3097 
Q 1497 3097 1228 2736 
Q 959 2375 959 1747 
Q 959 1119 1226 758 
Q 1494 397 1959 397 
Q 2419 397 2687 759 
Q 2956 1122 2956 1747 
Q 2956 2369 2687 2733 
Q 2419 3097 1959 3097 
z
M 1959 3584 
Q 2709 3584 3137 3096 
Q 3566 2609 3566 1747 
Q 3566 888 3137 398 
Q 2709 -91 1959 -91 
Q 1206 -91 779 398 
Q 353 888 353 1747 
Q 353 2609 779 3096 
Q 1206 3584 1959 3584 
z
" transform="scale(0.015625)"/>
       <path id="DejaVuSans-75" d="M 544 1381 
L 544 3500 
L 1119 3500 
L 1119 1403 
Q 1119 906 1312 657 
Q 1506 409 1894 409 
Q 2359 409 2629 706 
Q 2900 1003 2900 1516 
L 2900 3500 
L 3475 3500 
L 3475 0 
L 2900 0 
L 2900 538 
Q 2691 219 2414 64 
Q 2138 -91 1772 -91 
Q 1169 -91 856 284 
Q 544 659 544 1381 
z
M 1991 3584 
L 1991 3584 
z
" transform="scale(0.015625)"/>
       <path id="DejaVuSans-70" d="M 1159 525 
L 1159 -1331 
L 581 -1331 
L 581 3500 
L 1159 3500 
L 1159 2969 
Q 1341 3281 1617 3432 
Q 1894 3584 2278 3584 
Q 2916 3584 3314 3078 
Q 3713 2572 3713 1747 
Q 3713 922 3314 415 
Q 2916 -91 2278 -91 
Q 1894 -91 1617 61 
Q 1341 213 1159 525 
z
M 3116 1747 
Q 3116 2381 2855 2742 
Q 2594 3103 2138 3103 
Q 1681 3103 1420 2742 
Q 1159 2381 1159 1747 
Q 1159 1113 1420 752 
Q 1681 391 2138 391 
Q 2594 391 2855 752 
Q 3116 1113 3116 1747 
z
" transform="scale(0.015625)"/>
       <path id="DejaVuSans-6c" d="M 603 4863 
L 1178 4863 
L 1178 0 
L 603 0 
L 603 4863 
z
" transform="scale(0.015625)"/>
       <path id="DejaVuSans-64" d="M 2906 2969 
L 2906 4863 
L 3481 4863 
L 3481 0 
L 2906 0 
L 2906 525 
Q 2725 213 2448 61 
Q 2172 -91 1784 -91 
Q 1150 -91 751 415 
Q 353 922 353 1747 
Q 353 2572 751 3078 
Q 1150 3584 1784 3584 
Q 2172 3584 2448 3432 
Q 2725 3281 2906 2969 
z
M 947 1747 
Q 947 1113 1208 752 
Q 1469 391 1925 391 
Q 2381 391 2643 752 
Q 2906 1113 2906 1747 
Q 2906 2381 2643 2742 
Q 2381 3103 1925 3103 
Q 1469 3103 1208 2742 
Q 947 2381 947 1747 
z
" transform="scale(0.015625)"/>
      </defs>
      <use xlink:href="#DejaVuSans-72"/>
      <use xlink:href="#DejaVuSans-65" x="38.863281"/>
      <use xlink:href="#DejaVuSans-73" x="100.386719"/>
      <use xlink:href="#DejaVuSans-65" x="152.486328"/>
      <use xlink:href="#DejaVuSans-61" x="214.009766"/>
      <use xlink:href="#DejaVuSans-72" x="275.289062"/>
      <use xlink:href="#DejaVuSans-63" x="314.152344"/>
      <use xlink:href="#DejaVuSans-68" x="369.132812"/>
      <use xlink:href="#DejaVuSans-20" x="432.511719"/>
      <use xlink:href="#DejaVuSans-68" x="464.298828"/>
      <use xlink:href="#DejaVuSans-6f" x="527.677734"/>
      <use xlink:href="#DejaVuSans-75" x="588.859375"/>
      <use xlink:href="#DejaVuSans-72" x="652.238281"/>
      <use xlink:href="#DejaVuSans-73" x="693.351562"/>
      <use xlink:href="#DejaVuSans-20" x="745.451172"/>
      <use xlink:href="#DejaVuSans-63" x="777.238281"/>
      <use xlink:href="#DejaVuSans-6f" x="832.21875"/>
      <use xlink:href="#DejaVuSans-6d" x="893.400391"/>
      <use xlink:href="#DejaVuSans-70" x="990.8125"/>
      <use xlink:href="#DejaVuSans-6c" x="1054.289062"/>
      <use xlink:href="#DejaVuSans-65" x="1082.072266"/>
      <use xlink:href="#DejaVuSans-74" x="1143.595703"/>
      <use xlink:href="#DejaVuSans-65" x="1182.804688"/>
      <use xlink:href="#DejaVuSans-64" x="1244.328125"/>
     </g>
    </g>
   </g>
   <g id="line2d_10">
    <path d="M 81.991818 199.436274 
L 98.900909 72.284321 
L 115.81 65.933608 
L 132.719091 61.818606 
L 149.628182 57.849411 
L 166.537273 53.458995 
L 183.446364 49.514101 
L 200.355455 45.877022 
L 217.264545 42.239943 
L 234.173636 38.797274 
L 251.082727 35.775825 
L 267.991818 33.240401 
L 284.900909 30.972289 
L 301.81 29.117298 
L 318.719091 27.53772 
L 335.628182 26.095849 
" clip-path="url(#p88e6b065b2)" style="fill: none; stroke: #4b0082; stroke-width: 3; stroke-linecap: square"/>
   </g>
   <g id="line2d_11">
    <path d="M 81.991818 199.436274 
L 98.900909 69.8299 
L 115.81 69.8299 
L 132.719091 61.729502 
L 149.628182 53.629103 
L 166.537273 53.629103 
L 183.446364 45.528705 
L 200.355455 37.428307 
L 217.264545 37.428307 
L 234.173636 29.327908 
L 251.082727 29.327908 
L 267.991818 21.22751 
L 284.900909 21.22751 
L 301.81 21.22751 
L 318.719091 21.22751 
L 335.628182 21.22751 
" clip-path="url(#p88e6b065b2)" style="fill: none; stroke-dasharray: 5.55,2.4; stroke-dashoffset: 0; stroke: #4b0082; stroke-width: 1.5"/>
   </g>
   <g id="line2d_12">
    <path d="M 81.991818 199.436274 
L 98.900909 69.8299 
L 115.81 69.8299 
L 132.719091 61.729502 
L 149.628182 61.729502 
L 166.537273 53.629103 
L 183.446364 53.629103 
L 200.355455 45.528705 
L 217.264545 37.428307 
L 234.173636 29.327908 
L 251.082727 29.327908 
L 267.991818 21.22751 
L 284.900909 21.22751 
L 301.81 21.22751 
L 318.719091 21.22751 
L 335.628182 21.22751 
" clip-path="url(#p88e6b065b2)" style="fill: none; stroke-dasharray: 5.55,2.4; stroke-dashoffset: 0; stroke: #4b0082; stroke-width: 1.5"/>
   </g>
   <g id="line2d_13">
    <path d="M 81.991818 199.436274 
L 98.900909 102.231494 
L 115.81 77.930299 
L 132.719091 77.930299 
L 149.628182 69.8299 
L 166.537273 69.8299 
L 183.446364 69.8299 
L 200.355455 69.8299 
L 217.264545 61.729502 
L 234.173636 53.629103 
L 251.082727 45.528705 
L 267.991818 45.528705 
L 284.900909 45.528705 
L 301.81 45.528705 
L 318.719091 45.528705 
L 335.628182 45.528705 
" clip-path="url(#p88e6b065b2)" style="fill: none; stroke-dasharray: 5.55,2.4; stroke-dashoffset: 0; stroke: #4b0082; stroke-width: 1.5"/>
   </g>
   <g id="line2d_14">
    <path d="M 81.991818 199.436274 
L 98.900909 198.909748 
L 115.81 198.043006 
L 132.719091 196.949452 
L 149.628182 195.256469 
L 166.537273 192.591438 
L 183.446364 188.346829 
L 200.355455 183.065369 
L 217.264545 176.97387 
L 234.173636 170.47735 
L 251.082727 164.223842 
L 267.991818 158.504961 
L 284.900909 153.247803 
L 301.81 148.646776 
L 318.719091 145.422818 
L 335.628182 143.470622 
" clip-path="url(#p88e6b065b2)" style="fill: none; stroke: #1f77b4; stroke-width: 3; stroke-linecap: square"/>
   </g>
   <g id="line2d_15">
    <path d="M 81.991818 199.436274 
L 98.900909 199.436274 
L 115.81 199.436274 
L 132.719091 199.436274 
L 149.628182 199.436274 
L 166.537273 191.335876 
L 183.446364 191.335876 
L 200.355455 183.235477 
L 217.264545 183.235477 
L 234.173636 175.135079 
L 251.082727 158.934282 
L 267.991818 134.633087 
L 284.900909 86.030697 
L 301.81 77.930299 
L 318.719091 69.8299 
L 335.628182 61.729502 
" clip-path="url(#p88e6b065b2)" style="fill: none; stroke-dasharray: 5.55,2.4; stroke-dashoffset: 0; stroke: #1f77b4; stroke-width: 1.5"/>
   </g>
   <g id="line2d_16">
    <path d="M 81.991818 199.436274 
L 98.900909 199.436274 
L 115.81 199.436274 
L 132.719091 199.436274 
L 149.628182 199.436274 
L 166.537273 199.436274 
L 183.446364 199.436274 
L 200.355455 199.436274 
L 217.264545 191.335876 
L 234.173636 183.235477 
L 251.082727 183.235477 
L 267.991818 175.135079 
L 284.900909 175.135079 
L 301.81 158.934282 
L 318.719091 118.43229 
L 335.628182 86.030697 
" clip-path="url(#p88e6b065b2)" style="fill: none; stroke-dasharray: 5.55,2.4; stroke-dashoffset: 0; stroke: #1f77b4; stroke-width: 1.5"/>
   </g>
   <g id="line2d_17">
    <path d="M 81.991818 199.436274 
L 98.900909 199.436274 
L 115.81 191.335876 
L 132.719091 191.335876 
L 149.628182 191.335876 
L 166.537273 191.335876 
L 183.446364 175.135079 
L 200.355455 158.934282 
L 217.264545 142.733486 
L 234.173636 118.43229 
L 251.082727 94.131095 
L 267.991818 77.930299 
L 284.900909 69.8299 
L 301.81 61.729502 
L 318.719091 53.629103 
L 335.628182 53.629103 
" clip-path="url(#p88e6b065b2)" style="fill: none; stroke-dasharray: 5.55,2.4; stroke-dashoffset: 0; stroke: #1f77b4; stroke-width: 1.5"/>
   </g>
   <g id="line2d_18">
    <path d="M 81.991818 199.436274 
L 98.900909 186.321729 
L 115.81 171.724811 
L 132.719091 155.418709 
L 149.628182 137.233315 
L 166.537273 117.581749 
L 183.446364 98.456708 
L 200.355455 86.767833 
L 217.264545 80.457623 
L 234.173636 76.723339 
L 251.082727 73.321172 
L 267.991818 70.04051 
L 284.900909 66.58164 
L 301.81 63.446786 
L 318.719091 60.384836 
L 335.628182 57.201379 
" clip-path="url(#p88e6b065b2)" style="fill: none; stroke: #ffa500; stroke-width: 3; stroke-linecap: square"/>
   </g>
   <g id="line2d_19">
    <path d="M 81.991818 199.436274 
L 98.900909 183.235477 
L 115.81 175.135079 
L 132.719091 158.934282 
L 149.628182 150.833884 
L 166.537273 134.633087 
L 183.446364 126.532689 
L 200.355455 102.231494 
L 217.264545 77.930299 
L 234.173636 77.930299 
L 251.082727 77.930299 
L 267.991818 69.8299 
L 284.900909 69.8299 
L 301.81 61.729502 
L 318.719091 61.729502 
L 335.628182 53.629103 
" clip-path="url(#p88e6b065b2)" style="fill: none; stroke-dasharray: 5.55,2.4; stroke-dashoffset: 0; stroke: #ffa500; stroke-width: 1.5"/>
   </g>
   <g id="line2d_20">
    <path d="M 81.991818 199.436274 
L 98.900909 183.235477 
L 115.81 167.034681 
L 132.719091 158.934282 
L 149.628182 134.633087 
L 166.537273 110.331892 
L 183.446364 86.030697 
L 200.355455 86.030697 
L 217.264545 86.030697 
L 234.173636 77.930299 
L 251.082727 69.8299 
L 267.991818 69.8299 
L 284.900909 61.729502 
L 301.81 61.729502 
L 318.719091 53.629103 
L 335.628182 45.528705 
" clip-path="url(#p88e6b065b2)" style="fill: none; stroke-dasharray: 5.55,2.4; stroke-dashoffset: 0; stroke: #ffa500; stroke-width: 1.5"/>
   </g>
   <g id="line2d_21">
    <path d="M 81.991818 199.436274 
L 98.900909 183.235477 
L 115.81 175.135079 
L 132.719091 158.934282 
L 149.628182 150.833884 
L 166.537273 126.532689 
L 183.446364 110.331892 
L 200.355455 94.131095 
L 217.264545 77.930299 
L 234.173636 77.930299 
L 251.082727 77.930299 
L 267.991818 69.8299 
L 284.900909 69.8299 
L 301.81 69.8299 
L 318.719091 69.8299 
L 335.628182 61.729502 
" clip-path="url(#p88e6b065b2)" style="fill: none; stroke-dasharray: 5.55,2.4; stroke-dashoffset: 0; stroke: #ffa500; stroke-width: 1.5"/>
   </g>
   <g id="patch_3">
    <path d="M 69.31 224.64 
L 69.31 7.2 
" style="fill: none; stroke: #000000; stroke-width: 0.8; stroke-linejoin: miter; stroke-linecap: square"/>
   </g>
   <g id="patch_4">
    <path d="M 69.31 224.64 
L 348.31 224.64 
" style="fill: none; stroke: #000000; stroke-width: 0.8; stroke-linejoin: miter; stroke-linecap: square"/>
   </g>
  </g>
 </g>
 <defs>
  <clipPath id="p88e6b065b2">
   <rect x="69.31" y="7.2" width="279" height="217.44"/>
  </clipPath>
 </defs>
</svg>
