<?xml version="1.0" encoding="utf-8" standalone="no"?>
<!DOCTYPE svg PUBLIC "-//W3C//DTD SVG 1.1//EN"
  "http://www.w3.org/Graphics/SVG/1.1/DTD/svg11.dtd">
<svg xmlns:xlink="http://www.w3.org/1999/xlink" width="216pt" height="144pt" viewBox="0 0 216 144" xmlns="http://www.w3.org/2000/svg" version="1.1">
 <metadata>
  <rdf:RDF xmlns:dc="http://purl.org/dc/elements/1.1/" xmlns:cc="http://creativecommons.org/ns#" xmlns:rdf="http://www.w3.org/1999/02/22-rdf-syntax-ns#">
   <cc:Work>
    <dc:type rdf:resource="http://purl.org/dc/dcmitype/StillImage"/>
    <dc:date>2024-01-30T15:53:44.073656</dc:date>
    <dc:format>image/svg+xml</dc:format>
    <dc:creator>
     <cc:Agent>
      <dc:title>Matplotlib v3.7.2, https://matplotlib.org/</dc:title>
     </cc:Agent>
    </dc:creator>
   </cc:Work>
  </rdf:RDF>
 </metadata>
 <defs>
  <style type="text/css">*{stroke-linejoin: round; stroke-linecap: butt}</style>
 </defs>
 <g id="figure_1">
  <g id="patch_1">
   <path d="M 0 144 
L 216 144 
L 216 0 
L 0 0 
z
" style="fill: #ffffff"/>
  </g>
  <g id="axes_1">
   <g id="legend_1">
    <g id="line2d_1">
     <path d="M 28.48 38.24 
L 44.48 38.24 
L 60.48 38.24 
" style="fill: none; stroke: #4b0082; stroke-width: 2; stroke-linecap: square"/>
    </g>
    <g id="text_1">
     <!-- $\gamma$=0.6, $k$=1.5 -->
     <g transform="translate(73.28 43.84) scale(0.16 -0.16)">
      <defs>
       <path id="DejaVuSans-Oblique-3b3" d="M 1491 2950 
L 1838 788 
L 3456 3500 
L 4066 3500 
L 1972 0 
L 1713 -1331 
L 1138 -1331 
L 1397 0 
L 988 2613 
Q 925 3006 628 3006 
L 475 3006 
L 569 3500 
L 788 3500 
Q 1403 3500 1491 2950 
z
" transform="scale(0.015625)"/>
       <path id="DejaVuSans-3d" d="M 678 2906 
L 4684 2906 
L 4684 2381 
L 678 2381 
L 678 2906 
z
M 678 1631 
L 4684 1631 
L 4684 1100 
L 678 1100 
L 678 1631 
z
" transform="scale(0.015625)"/>
       <path id="DejaVuSans-30" d="M 2034 4250 
Q 1547 4250 1301 3770 
Q 1056 3291 1056 2328 
Q 1056 1369 1301 889 
Q 1547 409 2034 409 
Q 2525 409 2770 889 
Q 3016 1369 3016 2328 
Q 3016 3291 2770 3770 
Q 2525 4250 2034 4250 
z
M 2034 4750 
Q 2819 4750 3233 4129 
Q 3647 3509 3647 2328 
Q 3647 1150 3233 529 
Q 2819 -91 2034 -91 
Q 1250 -91 836 529 
Q 422 1150 422 2328 
Q 422 3509 836 4129 
Q 1250 4750 2034 4750 
z
" transform="scale(0.015625)"/>
       <path id="DejaVuSans-2e" d="M 684 794 
L 1344 794 
L 1344 0 
L 684 0 
L 684 794 
z
" transform="scale(0.015625)"/>
       <path id="DejaVuSans-36" d="M 2113 2584 
Q 1688 2584 1439 2293 
Q 1191 2003 1191 1497 
Q 1191 994 1439 701 
Q 1688 409 2113 409 
Q 2538 409 2786 701 
Q 3034 994 3034 1497 
Q 3034 2003 2786 2293 
Q 2538 2584 2113 2584 
z
M 3366 4563 
L 3366 3988 
Q 3128 4100 2886 4159 
Q 2644 4219 2406 4219 
Q 1781 4219 1451 3797 
Q 1122 3375 1075 2522 
Q 1259 2794 1537 2939 
Q 1816 3084 2150 3084 
Q 2853 3084 3261 2657 
Q 3669 2231 3669 1497 
Q 3669 778 3244 343 
Q 2819 -91 2113 -91 
Q 1303 -91 875 529 
Q 447 1150 447 2328 
Q 447 3434 972 4092 
Q 1497 4750 2381 4750 
Q 2619 4750 2861 4703 
Q 3103 4656 3366 4563 
z
" transform="scale(0.015625)"/>
       <path id="DejaVuSans-2c" d="M 750 794 
L 1409 794 
L 1409 256 
L 897 -744 
L 494 -744 
L 750 256 
L 750 794 
z
" transform="scale(0.015625)"/>
       <path id="DejaVuSans-20" transform="scale(0.015625)"/>
       <path id="DejaVuSans-Oblique-6b" d="M 1172 4863 
L 1747 4863 
L 1197 2028 
L 3169 3500 
L 3916 3500 
L 1716 1825 
L 3322 0 
L 2625 0 
L 1131 1709 
L 800 0 
L 225 0 
L 1172 4863 
z
" transform="scale(0.015625)"/>
       <path id="DejaVuSans-31" d="M 794 531 
L 1825 531 
L 1825 4091 
L 703 3866 
L 703 4441 
L 1819 4666 
L 2450 4666 
L 2450 531 
L 3481 531 
L 3481 0 
L 794 0 
L 794 531 
z
" transform="scale(0.015625)"/>
       <path id="DejaVuSans-35" d="M 691 4666 
L 3169 4666 
L 3169 4134 
L 1269 4134 
L 1269 2991 
Q 1406 3038 1543 3061 
Q 1681 3084 1819 3084 
Q 2600 3084 3056 2656 
Q 3513 2228 3513 1497 
Q 3513 744 3044 326 
Q 2575 -91 1722 -91 
Q 1428 -91 1123 -41 
Q 819 9 494 109 
L 494 744 
Q 775 591 1075 516 
Q 1375 441 1709 441 
Q 2250 441 2565 725 
Q 2881 1009 2881 1497 
Q 2881 1984 2565 2268 
Q 2250 2553 1709 2553 
Q 1456 2553 1204 2497 
Q 953 2441 691 2322 
L 691 4666 
z
" transform="scale(0.015625)"/>
      </defs>
      <use xlink:href="#DejaVuSans-Oblique-3b3" transform="translate(0 0.015625)"/>
      <use xlink:href="#DejaVuSans-3d" transform="translate(59.179688 0.015625)"/>
      <use xlink:href="#DejaVuSans-30" transform="translate(142.96875 0.015625)"/>
      <use xlink:href="#DejaVuSans-2e" transform="translate(206.591797 0.015625)"/>
      <use xlink:href="#DejaVuSans-36" transform="translate(238.378906 0.015625)"/>
      <use xlink:href="#DejaVuSans-2c" transform="translate(302.001953 0.015625)"/>
      <use xlink:href="#DejaVuSans-20" transform="translate(333.789062 0.015625)"/>
      <use xlink:href="#DejaVuSans-Oblique-6b" transform="translate(365.576172 0.015625)"/>
      <use xlink:href="#DejaVuSans-3d" transform="translate(423.486328 0.015625)"/>
      <use xlink:href="#DejaVuSans-31" transform="translate(507.275391 0.015625)"/>
      <use xlink:href="#DejaVuSans-2e" transform="translate(570.898438 0.015625)"/>
      <use xlink:href="#DejaVuSans-35" transform="translate(602.685547 0.015625)"/>
     </g>
    </g>
    <g id="line2d_2">
     <path d="M 28.48 61.76 
L 44.48 61.76 
L 60.48 61.76 
" style="fill: none; stroke: #1f77b4; stroke-width: 2; stroke-linecap: square"/>
    </g>
    <g id="text_2">
     <!-- $\gamma$=0.6, $k$=2.2 -->
     <g transform="translate(73.28 67.36) scale(0.16 -0.16)">
      <defs>
       <path id="DejaVuSans-32" d="M 1228 531 
L 3431 531 
L 3431 0 
L 469 0 
L 469 531 
Q 828 903 1448 1529 
Q 2069 2156 2228 2338 
Q 2531 2678 2651 2914 
Q 2772 3150 2772 3378 
Q 2772 3750 2511 3984 
Q 2250 4219 1831 4219 
Q 1534 4219 1204 4116 
Q 875 4013 500 3803 
L 500 4441 
Q 881 4594 1212 4672 
Q 1544 4750 1819 4750 
Q 2544 4750 2975 4387 
Q 3406 4025 3406 3419 
Q 3406 3131 3298 2873 
Q 3191 2616 2906 2266 
Q 2828 2175 2409 1742 
Q 1991 1309 1228 531 
z
" transform="scale(0.015625)"/>
      </defs>
      <use xlink:href="#DejaVuSans-Oblique-3b3" transform="translate(0 0.015625)"/>
      <use xlink:href="#DejaVuSans-3d" transform="translate(59.179688 0.015625)"/>
      <use xlink:href="#DejaVuSans-30" transform="translate(142.96875 0.015625)"/>
      <use xlink:href="#DejaVuSans-2e" transform="translate(206.591797 0.015625)"/>
      <use xlink:href="#DejaVuSans-36" transform="translate(238.378906 0.015625)"/>
      <use xlink:href="#DejaVuSans-2c" transform="translate(302.001953 0.015625)"/>
      <use xlink:href="#DejaVuSans-20" transform="translate(333.789062 0.015625)"/>
      <use xlink:href="#DejaVuSans-Oblique-6b" transform="translate(365.576172 0.015625)"/>
      <use xlink:href="#DejaVuSans-3d" transform="translate(423.486328 0.015625)"/>
      <use xlink:href="#DejaVuSans-32" transform="translate(507.275391 0.015625)"/>
      <use xlink:href="#DejaVuSans-2e" transform="translate(570.898438 0.015625)"/>
      <use xlink:href="#DejaVuSans-32" transform="translate(597.185547 0.015625)"/>
     </g>
    </g>
    <g id="line2d_3">
     <path d="M 28.48 85.28 
L 44.48 85.28 
L 60.48 85.28 
" style="fill: none; stroke: #ffa500; stroke-width: 2; stroke-linecap: square"/>
    </g>
    <g id="text_3">
     <!-- $\gamma$=0.9, $k$=2.2 -->
     <g transform="translate(73.28 90.88) scale(0.16 -0.16)">
      <defs>
       <path id="DejaVuSans-39" d="M 703 97 
L 703 672 
Q 941 559 1184 500 
Q 1428 441 1663 441 
Q 2288 441 2617 861 
Q 2947 1281 2994 2138 
Q 2813 1869 2534 1725 
Q 2256 1581 1919 1581 
Q 1219 1581 811 2004 
Q 403 2428 403 3163 
Q 403 3881 828 4315 
Q 1253 4750 1959 4750 
Q 2769 4750 3195 4129 
Q 3622 3509 3622 2328 
Q 3622 1225 3098 567 
Q 2575 -91 1691 -91 
Q 1453 -91 1209 -44 
Q 966 3 703 97 
z
M 1959 2075 
Q 2384 2075 2632 2365 
Q 2881 2656 2881 3163 
Q 2881 3666 2632 3958 
Q 2384 4250 1959 4250 
Q 1534 4250 1286 3958 
Q 1038 3666 1038 3163 
Q 1038 2656 1286 2365 
Q 1534 2075 1959 2075 
z
" transform="scale(0.015625)"/>
      </defs>
      <use xlink:href="#DejaVuSans-Oblique-3b3" transform="translate(0 0.015625)"/>
      <use xlink:href="#DejaVuSans-3d" transform="translate(59.179688 0.015625)"/>
      <use xlink:href="#DejaVuSans-30" transform="translate(142.96875 0.015625)"/>
      <use xlink:href="#DejaVuSans-2e" transform="translate(206.591797 0.015625)"/>
      <use xlink:href="#DejaVuSans-39" transform="translate(238.378906 0.015625)"/>
      <use xlink:href="#DejaVuSans-2c" transform="translate(302.001953 0.015625)"/>
      <use xlink:href="#DejaVuSans-20" transform="translate(333.789062 0.015625)"/>
      <use xlink:href="#DejaVuSans-Oblique-6b" transform="translate(365.576172 0.015625)"/>
      <use xlink:href="#DejaVuSans-3d" transform="translate(423.486328 0.015625)"/>
      <use xlink:href="#DejaVuSans-32" transform="translate(507.275391 0.015625)"/>
      <use xlink:href="#DejaVuSans-2e" transform="translate(570.898438 0.015625)"/>
      <use xlink:href="#DejaVuSans-32" transform="translate(597.185547 0.015625)"/>
     </g>
    </g>
   </g>
  </g>
 </g>
</svg>
